{"glyphs":{"0":{"ha":872,"x_min":0,"x_max":0,"o":"m 436 983 b 60 485 186 983 60 782 b 436 -14 60 188 186 -14 b 813 485 685 -14 813 188 b 436 983 813 782 685 983 z m 436 103 b 186 485 272 103 186 250 b 436 865 186 718 272 865 b 686 485 600 865 686 718 b 436 103 686 250 600 103 z "},"1":{"ha":872,"x_min":0,"x_max":0,"o":"m 675 118 l 538 118 l 538 903 b 471 969 538 939 507 969 l 442 969 b 403 960 428 969 414 965 l 214 861 b 178 804 189 849 178 831 b 238 744 178 769 203 744 b 269 753 251 744 260 749 l 411 822 l 411 118 l 246 118 b 188 58 213 118 188 92 b 246 0 188 25 213 0 l 675 0 b 735 58 708 0 735 25 b 675 118 735 92 708 118 z "},"2":{"ha":872,"x_min":0,"x_max":0,"o":"m 700 118 l 217 118 b 768 701 292 281 768 415 b 449 983 768 871 626 983 b 140 913 321 983 218 951 b 110 861 119 901 110 885 b 163 807 110 831 132 807 b 189 814 174 807 186 813 b 426 864 251 842 332 864 b 646 692 588 864 646 790 b 90 72 646 465 90 365 b 164 0 90 29 121 0 l 700 0 b 760 58 733 0 760 25 b 700 118 760 92 733 118 z "},"3":{"ha":872,"x_min":0,"x_max":0,"o":"m 565 501 b 733 733 644 531 733 593 b 399 983 733 892 613 983 b 124 913 282 983 189 947 b 96 865 106 903 96 885 b 147 814 96 835 119 814 b 172 819 158 814 165 817 b 388 865 229 846 300 865 b 607 721 536 865 607 807 b 321 553 607 608 503 553 l 313 553 b 254 494 281 553 254 526 b 313 436 254 463 281 436 l 335 436 b 642 261 564 436 642 364 b 385 107 642 139 506 107 b 164 147 294 107 219 125 b 138 153 157 150 146 153 b 82 94 104 153 82 124 b 118 42 82 68 97 50 b 408 -14 186 14 285 -14 b 768 254 611 -14 768 78 b 565 501 768 425 643 483 z "},"4":{"ha":872,"x_min":0,"x_max":0,"o":"m 771 357 l 665 357 l 665 896 b 585 976 665 940 633 976 l 557 976 b 488 943 529 976 503 963 l 51 386 b 35 336 42 374 35 354 l 35 324 b 115 244 35 279 71 244 l 539 244 l 539 56 b 601 -7 539 21 567 -7 b 665 56 636 -7 665 21 l 665 244 l 771 244 b 828 300 803 244 828 268 b 771 357 828 332 803 357 z m 169 357 l 539 833 l 539 357 z "},"5":{"ha":872,"x_min":0,"x_max":0,"o":"m 469 614 b 235 557 367 614 292 588 l 279 851 l 682 851 b 742 910 715 851 742 876 b 682 969 742 943 715 969 l 236 969 b 163 900 197 969 168 943 l 100 531 b 97 497 99 522 97 507 b 189 417 97 447 138 417 b 238 433 211 417 225 426 b 451 493 283 461 357 493 b 667 307 585 493 667 421 b 396 111 667 157 560 111 b 174 169 308 111 233 138 b 144 176 165 174 156 176 b 89 117 111 176 89 149 b 117 67 89 88 103 76 b 413 -14 186 22 283 -14 b 793 300 676 -14 793 122 b 469 614 793 481 679 614 z "},"6":{"ha":872,"x_min":0,"x_max":0,"o":"m 488 628 b 203 506 335 628 249 564 b 494 861 210 631 256 861 b 679 821 571 861 632 843 b 703 817 686 818 694 817 b 760 874 738 817 760 844 b 731 924 760 894 747 915 b 485 983 675 953 600 983 b 82 483 179 983 82 700 b 463 -14 82 293 119 -14 b 806 301 675 -14 806 126 b 488 628 806 500 676 628 z m 464 104 b 210 360 290 104 229 225 b 472 513 239 414 308 513 b 679 304 611 513 679 426 b 464 104 679 197 596 104 z "},"7":{"ha":872,"x_min":0,"x_max":0,"o":"m 788 896 b 710 969 788 938 754 969 l 143 969 b 83 908 110 969 83 942 b 143 849 83 875 110 849 l 647 849 l 265 89 b 257 56 260 78 257 67 b 319 -7 257 19 283 -7 b 379 28 344 -7 368 7 l 774 835 b 788 896 782 853 788 874 z "},"8":{"ha":872,"x_min":0,"x_max":0,"o":"m 761 731 b 436 983 761 839 679 983 b 111 731 193 983 111 839 b 272 519 111 617 186 549 b 65 257 149 478 65 399 b 436 -14 65 133 160 -14 b 807 257 713 -14 807 133 b 600 519 807 399 724 478 b 761 731 686 549 761 617 z m 436 97 b 192 271 250 97 192 208 b 436 458 192 396 308 458 b 681 271 564 458 681 396 b 436 97 681 208 622 97 z m 238 722 b 436 872 238 804 301 872 b 635 722 571 872 635 804 b 436 572 635 658 588 572 b 238 722 285 572 238 658 z "},"9":{"ha":872,"x_min":0,"x_max":0,"o":"m 385 342 b 669 464 538 342 624 406 b 378 108 663 339 617 108 b 193 149 301 108 240 126 b 169 153 186 151 178 153 b 113 96 135 153 113 125 b 142 46 113 75 125 54 b 388 -14 197 17 272 -14 b 790 486 693 -14 790 269 b 410 983 790 676 753 983 b 67 668 197 983 67 843 b 385 342 67 469 196 342 z m 408 865 b 663 610 582 865 643 744 b 400 457 633 556 564 457 b 193 665 261 457 193 543 b 408 865 193 772 276 865 z "}," ":{"ha":361,"x_min":0,"x_max":0,"o":""},"!":{"ha":390,"x_min":0,"x_max":0,"o":"m 196 268 b 242 308 225 268 240 285 l 267 767 l 267 904 b 196 976 267 944 236 976 b 124 904 156 976 124 944 l 124 767 l 149 308 b 196 268 150 285 167 268 z m 196 160 b 114 78 151 160 114 122 b 196 -6 114 32 151 -6 b 279 78 242 -6 279 32 b 196 160 279 122 242 160 z "},"\"":{"ha":571,"x_min":0,"x_max":0,"o":"m 83 968 b 114 718 79 889 101 779 b 154 683 118 700 132 683 b 194 718 176 683 190 700 b 225 968 207 779 229 889 b 154 1038 224 1007 192 1038 b 83 968 117 1038 85 1007 z m 346 968 b 376 718 342 889 364 779 b 417 683 381 700 394 683 b 457 718 439 683 453 700 b 488 968 469 779 492 889 b 417 1038 486 1007 454 1038 b 346 968 379 1038 347 1007 z "},"#":{"ha":850,"x_min":0,"x_max":0,"o":"m 750 658 l 643 658 b 676 868 676 858 676 864 b 628 917 676 896 657 917 b 579 878 601 917 582 899 l 544 658 l 368 658 b 401 868 401 858 401 864 b 353 917 401 896 382 917 b 304 878 326 917 307 899 l 269 658 l 147 658 b 99 610 121 658 99 636 b 147 561 99 583 121 561 l 254 561 l 221 350 l 99 350 b 50 301 72 350 50 328 b 99 253 50 275 72 253 l 206 253 b 172 42 172 47 172 44 b 221 -7 172 14 196 -7 b 269 33 246 -7 265 13 l 304 253 l 481 253 b 447 42 447 47 447 44 b 496 -7 447 14 471 -7 b 544 33 521 -7 540 13 l 579 253 l 701 253 b 750 301 728 253 750 275 b 701 350 750 328 728 350 l 596 350 l 594 350 l 628 561 l 750 561 b 799 610 776 561 799 583 b 750 658 799 636 776 658 z m 496 350 l 319 350 l 353 561 l 529 561 z "},"$":{"ha":850,"x_min":0,"x_max":0,"o":"m 464 538 l 464 868 b 672 831 542 867 613 851 b 694 825 679 828 688 825 b 750 882 729 825 750 854 b 711 938 750 915 731 931 b 464 983 643 963 560 981 l 464 1090 b 432 1122 464 1108 450 1122 b 401 1090 414 1122 401 1108 l 401 982 b 75 699 188 971 75 846 b 401 422 75 515 244 464 l 401 104 b 149 158 292 107 207 132 b 122 164 139 163 131 164 b 65 107 88 164 65 138 b 104 53 65 82 83 61 b 401 -14 178 21 278 -8 l 401 -122 b 432 -153 401 -140 414 -153 b 464 -122 450 -153 464 -140 l 464 -14 b 790 257 663 -3 790 107 b 464 538 790 453 621 500 z m 200 708 b 401 865 200 800 285 854 l 401 553 b 200 708 290 581 200 614 z m 464 106 l 464 407 b 665 265 574 378 665 346 b 464 106 665 157 581 114 z "},"%":{"ha":1131,"x_min":0,"x_max":0,"o":"m 283 993 b 60 744 136 993 60 883 b 283 496 60 606 136 496 b 507 744 431 496 507 606 b 283 993 507 883 431 993 z m 283 586 b 157 744 201 586 157 656 b 283 903 157 833 201 903 b 410 744 365 903 410 833 b 283 586 410 656 365 586 z m 847 472 b 624 224 700 472 624 363 b 847 -25 624 85 700 -25 b 1071 224 994 -25 1071 85 b 847 472 1071 363 994 472 z m 847 65 b 721 224 765 65 721 135 b 847 382 721 313 765 382 b 974 224 929 382 974 313 b 847 65 974 135 929 65 z m 896 940 b 849 982 896 967 876 982 b 810 960 832 982 818 974 l 244 56 b 238 32 240 49 238 40 b 283 -14 238 6 260 -14 b 325 11 301 -14 317 -3 l 886 910 b 896 940 893 921 896 932 z "},"&":{"ha":1017,"x_min":0,"x_max":0,"o":"m 801 179 b 868 293 826 214 850 254 b 875 321 872 301 875 311 b 817 378 875 354 850 378 b 763 343 793 378 771 363 b 717 258 751 319 738 289 l 426 532 b 288 747 326 626 288 664 b 436 875 288 811 339 875 b 567 839 488 875 531 858 b 592 832 575 835 583 832 b 640 881 619 832 640 856 b 615 922 640 899 628 915 b 431 983 565 956 501 983 b 171 740 268 983 171 871 b 256 539 171 653 207 597 b 99 272 201 504 99 415 b 439 -14 99 135 193 -14 b 724 94 551 -14 649 31 l 817 6 b 860 -11 831 -7 842 -11 b 917 46 896 -11 917 17 b 894 90 917 67 908 78 z m 642 171 b 428 93 589 128 518 93 b 218 268 311 93 218 164 b 332 461 218 364 282 428 l 642 171 z "},"'":{"ha":331,"x_min":0,"x_max":0,"o":"m 188 1032 l 174 1032 b 96 954 131 1032 96 997 l 96 946 b 174 868 96 903 131 868 l 179 868 b 108 739 179 792 149 763 b 88 704 94 731 88 719 b 128 663 88 682 104 663 b 151 669 138 663 147 667 b 265 872 206 703 265 761 l 265 946 l 265 954 b 188 1032 265 997 231 1032 z "},"(":{"ha":433,"x_min":0,"x_max":0,"o":"m 368 -160 b 360 -129 368 -149 365 -139 b 197 426 264 31 197 221 b 360 982 197 632 264 822 b 368 1013 365 992 368 1001 b 313 1067 368 1044 342 1067 b 267 1042 289 1067 279 1057 b 71 426 133 883 71 658 b 267 -189 71 194 133 -31 b 313 -214 279 -204 289 -214 b 368 -160 342 -214 368 -192 z "},")":{"ha":433,"x_min":0,"x_max":0,"o":"m 67 -160 b 122 -214 67 -192 93 -214 b 168 -189 146 -214 156 -204 b 364 426 301 -31 364 194 b 168 1042 364 658 301 883 b 122 1067 156 1057 146 1067 b 67 1013 93 1067 67 1044 b 75 982 67 1001 69 992 b 238 426 171 822 238 632 b 75 -129 238 221 171 31 b 67 -160 69 -139 67 -149 z "},"*":{"ha":579,"x_min":0,"x_max":0,"o":"m 467 700 b 328 754 464 701 461 703 b 467 808 461 806 464 807 b 481 865 486 821 490 847 b 425 881 469 883 444 893 b 308 788 422 879 419 878 b 331 935 331 929 331 932 b 289 975 331 958 310 975 b 247 935 268 975 247 958 b 269 788 247 932 247 929 b 153 881 158 878 156 879 b 97 865 132 893 108 883 b 111 808 88 847 90 821 b 250 754 114 807 117 806 b 111 700 117 703 114 701 b 97 644 90 689 88 663 b 153 628 108 626 132 617 b 269 721 156 629 158 631 b 247 574 247 579 247 576 b 289 533 247 550 268 533 b 331 574 310 533 331 550 b 308 721 331 576 331 579 b 425 628 419 631 422 629 b 481 644 444 617 469 626 b 467 700 490 663 486 689 z "},"+":{"ha":781,"x_min":0,"x_max":0,"o":"m 671 533 l 444 533 l 444 761 b 390 815 444 792 421 815 b 336 761 360 815 336 792 l 336 533 l 108 533 b 56 479 78 533 56 510 b 108 426 56 449 78 426 l 336 426 l 336 199 b 390 144 336 168 360 144 b 444 199 421 144 444 168 l 444 426 l 671 426 b 725 479 701 426 725 449 b 671 533 725 510 701 533 z "},",":{"ha":361,"x_min":0,"x_max":0,"o":"m 188 160 l 174 160 b 96 82 131 160 96 125 l 96 74 b 174 -4 96 31 131 -4 l 179 -4 b 108 -133 179 -81 149 -110 b 88 -168 94 -142 88 -153 b 128 -210 88 -190 104 -210 b 151 -203 138 -210 147 -206 b 265 0 206 -169 265 -111 l 265 74 l 265 82 b 188 160 265 125 231 160 z "},"-":{"ha":567,"x_min":0,"x_max":0,"o":"m 414 446 l 151 446 b 96 389 119 446 96 421 b 151 333 96 357 119 333 l 414 333 b 471 389 446 333 471 357 b 414 446 471 421 446 446 z "},".":{"ha":361,"x_min":0,"x_max":0,"o":"m 188 160 l 174 160 b 96 82 131 160 96 125 l 96 74 b 174 -4 96 31 131 -4 l 188 -4 b 265 74 231 -4 265 31 l 265 82 b 188 160 265 125 231 160 z "},"/":{"ha":615,"x_min":0,"x_max":0,"o":"m 493 1061 b 439 1022 465 1061 446 1044 l 71 -54 b 67 -75 69 -58 67 -68 b 124 -132 67 -107 90 -132 b 178 -93 151 -132 171 -115 l 546 983 b 550 1004 547 988 550 997 b 493 1061 550 1036 526 1061 z "},":":{"ha":361,"x_min":0,"x_max":0,"o":"m 188 160 l 174 160 b 96 82 131 160 96 125 l 96 74 b 174 -4 96 31 131 -4 l 188 -4 b 265 74 231 -4 265 31 l 265 82 b 188 160 265 125 231 160 z m 188 713 l 174 713 b 96 635 131 713 96 678 l 96 626 b 174 549 96 583 131 549 l 188 549 b 265 626 231 549 265 583 l 265 635 b 188 713 265 678 231 713 z "},";":{"ha":361,"x_min":0,"x_max":0,"o":"m 188 160 l 174 160 b 96 82 131 160 96 125 l 96 74 b 174 -4 96 31 131 -4 l 179 -4 b 108 -133 179 -81 149 -110 b 88 -168 94 -142 88 -153 b 128 -210 88 -190 104 -210 b 151 -203 138 -210 147 -206 b 265 0 206 -169 265 -111 l 265 74 l 265 82 b 188 160 265 125 231 160 z m 188 713 l 174 713 b 96 635 131 713 96 678 l 96 626 b 174 549 96 583 131 549 l 188 549 b 265 626 231 549 265 583 l 265 635 b 188 713 265 678 231 713 z "},"<":{"ha":806,"x_min":0,"x_max":0,"o":"m 675 81 b 731 136 706 81 731 104 b 693 189 731 158 715 179 l 193 411 l 693 633 b 731 686 715 643 731 664 b 675 742 731 718 706 742 b 653 738 667 742 660 740 l 99 489 b 49 417 68 475 49 449 l 49 406 b 99 333 49 374 68 347 l 653 85 b 675 81 660 82 667 81 z "},"=":{"ha":989,"x_min":0,"x_max":0,"o":"m 156 561 l 833 561 b 888 615 864 561 888 585 b 833 669 888 646 864 669 l 156 669 b 101 615 125 669 101 646 b 156 561 101 585 125 561 z m 833 358 l 156 358 b 101 304 125 358 101 335 b 156 250 101 274 125 250 l 833 250 b 888 304 864 250 888 274 b 833 358 888 335 864 358 z "},">":{"ha":806,"x_min":0,"x_max":0,"o":"m 131 81 b 153 85 139 81 146 82 l 707 333 b 757 406 738 347 757 374 l 757 417 b 707 489 757 449 738 475 l 153 738 b 131 742 146 740 139 742 b 75 686 100 742 75 718 b 113 633 75 664 90 643 l 613 411 l 113 189 b 75 136 90 179 75 158 b 131 81 75 104 100 81 z "},"?":{"ha":690,"x_min":0,"x_max":0,"o":"m 315 983 b 71 917 224 983 149 965 b 36 864 53 906 36 890 b 92 808 36 833 61 808 b 126 819 103 808 118 814 b 304 865 175 850 242 865 b 503 714 444 865 503 808 b 246 313 503 578 246 549 b 307 258 246 283 272 258 b 368 313 339 258 368 282 b 628 721 368 490 628 499 b 315 983 628 882 504 983 z m 304 160 b 222 78 260 160 222 122 b 304 -6 222 32 260 -6 b 388 78 350 -6 388 32 b 304 160 388 122 350 160 z "},"@":{"ha":1247,"x_min":0,"x_max":0,"o":"m 657 956 b 68 364 336 956 68 682 b 556 -115 68 113 258 -115 b 876 -42 693 -115 799 -81 b 896 -10 888 -36 896 -24 b 861 24 896 10 881 24 b 846 21 856 24 850 22 b 556 -43 760 -14 682 -43 b 140 364 286 -43 140 164 b 657 882 140 644 376 882 b 1111 475 878 882 1111 743 b 932 197 1111 308 1049 197 b 863 288 882 197 863 240 b 872 378 863 321 868 356 l 918 642 b 919 657 919 650 919 654 b 869 708 919 686 897 708 b 818 665 844 708 822 690 l 814 642 b 636 713 779 675 721 713 b 307 375 471 713 307 592 b 543 131 307 236 390 131 b 772 235 629 131 713 163 b 928 132 782 186 828 132 b 1186 475 1115 132 1186 313 b 657 956 1186 760 943 954 z m 776 421 b 574 226 750 265 663 226 b 414 389 486 226 414 275 b 642 614 414 536 525 614 b 799 550 717 614 767 583 z "},"A":{"ha":968,"x_min":0,"x_max":0,"o":"m 926 83 l 572 919 b 492 976 560 949 533 976 l 478 976 b 397 919 436 976 410 949 l 43 83 b 36 56 39 74 36 64 b 99 -7 36 21 60 -7 b 158 32 125 -7 147 7 l 249 249 l 721 249 l 811 32 b 871 -7 822 7 844 -7 b 933 56 910 -7 933 21 b 926 83 933 64 931 74 z m 297 364 l 485 815 l 672 364 z "},"B":{"ha":963,"x_min":0,"x_max":0,"o":"m 700 504 b 836 718 771 536 836 603 b 525 969 836 868 728 969 l 197 969 b 135 906 163 969 135 940 l 135 63 b 197 0 135 28 163 0 l 533 0 b 890 272 790 0 890 110 b 700 504 890 400 800 472 z m 715 708 b 492 550 715 618 667 550 l 261 550 l 261 851 l 515 851 b 715 708 642 851 715 794 z m 521 118 l 261 118 l 261 436 l 522 436 b 768 278 682 436 768 388 b 521 118 768 183 711 118 z "},"C":{"ha":969,"x_min":0,"x_max":0,"o":"m 856 178 b 831 172 849 178 839 176 b 576 107 757 133 685 107 b 204 485 331 107 204 271 b 576 863 204 699 331 863 b 831 797 685 863 757 836 b 856 792 839 793 849 792 b 911 847 890 792 913 818 b 881 897 910 874 899 888 b 564 983 794 946 700 983 b 78 485 288 983 78 794 b 564 -14 78 175 288 -14 b 881 72 700 -14 794 24 b 911 122 899 82 910 96 b 856 178 913 151 890 178 z "},"D":{"ha":1042,"x_min":0,"x_max":0,"o":"m 476 969 l 197 969 b 135 906 163 969 135 940 l 135 63 b 197 0 135 28 163 0 l 476 0 b 967 485 808 0 967 251 b 476 969 967 719 808 969 z m 461 118 l 261 118 l 261 851 l 461 851 b 842 485 693 851 842 701 b 461 118 842 268 693 118 z "},"E":{"ha":886,"x_min":0,"x_max":0,"o":"m 754 118 l 261 118 l 261 426 l 704 426 b 764 485 738 426 764 451 b 704 544 764 518 738 544 l 261 544 l 261 851 l 754 851 b 814 910 788 851 814 876 b 754 969 814 943 788 969 l 197 969 b 135 906 163 969 135 940 l 135 63 b 197 0 135 28 163 0 l 754 0 b 814 58 788 0 814 25 b 754 118 814 92 788 118 z "},"F":{"ha":847,"x_min":0,"x_max":0,"o":"m 738 851 b 797 910 771 851 797 876 b 738 969 797 943 771 969 l 197 969 b 135 906 163 969 135 940 l 135 56 b 197 -7 135 21 163 -7 b 261 56 232 -7 261 21 l 261 426 l 689 426 b 749 485 722 426 749 451 b 689 544 749 518 722 544 l 261 544 l 261 851 z "},"G":{"ha":1033,"x_min":0,"x_max":0,"o":"m 868 532 l 594 532 b 538 475 563 532 538 507 b 594 418 538 443 563 418 l 824 418 l 824 167 b 581 106 760 132 678 106 b 203 483 342 106 203 269 b 574 861 203 726 364 861 b 846 783 681 861 764 832 b 875 776 854 779 864 776 b 933 833 911 776 933 804 b 906 883 933 858 918 876 b 560 983 818 939 717 983 b 76 483 290 983 76 785 b 564 -14 76 193 272 -14 b 882 64 685 -14 790 18 b 935 150 914 79 935 111 l 935 465 b 868 532 935 503 906 532 z "},"H":{"ha":1049,"x_min":0,"x_max":0,"o":"m 850 976 b 788 913 815 976 788 947 l 788 543 l 261 543 l 261 913 b 197 976 261 947 232 976 b 135 913 163 976 135 947 l 135 56 b 197 -7 135 21 163 -7 b 261 56 232 -7 261 21 l 261 425 l 788 425 l 788 56 b 850 -7 788 21 815 -7 b 914 56 885 -7 914 21 l 914 913 b 850 976 914 947 885 976 z "},"I":{"ha":396,"x_min":0,"x_max":0,"o":"m 197 976 b 135 913 163 976 135 947 l 135 56 b 197 -7 135 21 163 -7 b 261 56 232 -7 261 21 l 261 913 b 197 976 261 947 232 976 z "},"J":{"ha":647,"x_min":0,"x_max":0,"o":"m 454 976 b 392 913 419 976 392 947 l 392 311 b 224 106 392 136 307 106 b 94 136 175 106 132 118 b 69 142 86 140 76 142 b 17 85 38 142 17 114 b 47 33 17 58 31 43 b 232 -14 99 4 161 -14 b 518 319 374 -14 518 54 l 518 913 b 454 976 518 947 489 976 z "},"K":{"ha":931,"x_min":0,"x_max":0,"o":"m 874 94 l 506 558 l 826 878 b 842 917 836 888 840 901 b 783 976 844 950 817 976 b 736 954 763 976 746 965 l 261 471 l 261 913 b 197 976 261 947 232 976 b 135 913 163 976 135 947 l 135 56 b 197 -7 135 21 163 -7 b 261 56 232 -7 261 21 l 261 315 l 419 475 l 778 18 b 828 -7 789 3 807 -7 b 889 54 863 -7 890 21 b 874 94 889 69 883 82 z "},"L":{"ha":800,"x_min":0,"x_max":0,"o":"m 715 126 l 261 126 l 261 913 b 197 976 261 947 232 976 b 135 913 163 976 135 947 l 135 88 b 222 0 135 39 174 0 l 715 0 b 779 63 750 0 779 28 b 715 126 779 97 750 126 z "},"M":{"ha":1342,"x_min":0,"x_max":0,"o":"m 1117 976 l 1071 976 b 986 918 1033 976 1000 951 l 671 132 l 356 918 b 271 976 342 951 308 976 l 225 976 b 135 885 175 976 135 935 l 135 56 b 197 -7 135 21 163 -7 b 261 56 232 -7 261 21 l 261 844 l 582 51 b 671 -7 597 17 631 -7 b 760 51 711 -7 744 17 l 1081 844 l 1081 56 b 1144 -7 1081 21 1110 -7 b 1207 56 1179 -7 1207 21 l 1207 885 b 1117 976 1207 935 1167 976 z "},"N":{"ha":1115,"x_min":0,"x_max":0,"o":"m 917 976 b 854 913 882 976 854 947 l 854 163 l 319 935 b 243 976 300 960 274 976 l 225 976 b 135 885 175 976 135 935 l 135 56 b 197 -7 135 21 163 -7 b 261 56 232 -7 261 21 l 261 807 l 799 31 b 872 -7 815 8 842 -7 l 889 -7 b 981 83 939 -7 981 33 l 981 913 b 917 976 981 947 951 976 z "},"O":{"ha":1126,"x_min":0,"x_max":0,"o":"m 564 983 b 76 485 267 983 82 775 b 564 -14 82 194 267 -14 b 1051 485 860 -14 1046 194 b 564 983 1046 775 860 983 z m 564 104 b 203 485 333 104 203 271 b 564 865 203 699 333 865 b 925 485 793 865 925 699 b 564 104 925 271 793 104 z "},"P":{"ha":929,"x_min":0,"x_max":0,"o":"m 514 969 l 197 969 b 135 906 163 969 135 940 l 135 56 b 197 -7 135 21 163 -7 b 261 56 232 -7 261 21 l 261 353 l 514 353 b 885 661 794 353 885 514 b 514 969 885 808 794 969 z m 501 472 l 261 472 l 261 850 l 501 850 b 758 661 708 850 758 751 b 501 472 758 571 708 472 z "},"Q":{"ha":1128,"x_min":0,"x_max":0,"o":"m 1051 485 b 564 983 1046 775 860 983 b 76 485 267 983 82 775 b 564 -14 82 194 267 -14 b 647 -8 593 -14 621 -12 l 799 -189 b 843 -211 810 -203 825 -211 b 903 -151 876 -211 904 -183 b 886 -111 903 -136 896 -121 l 764 24 b 1051 485 942 97 1047 268 z m 564 104 b 203 485 333 104 203 271 b 564 865 203 699 333 865 b 925 485 793 865 925 699 b 564 104 925 271 793 104 z "},"R":{"ha":989,"x_min":0,"x_max":0,"o":"m 890 119 b 717 436 890 197 871 396 b 899 688 839 478 899 581 b 521 969 899 847 785 969 l 197 969 b 135 906 163 969 135 940 l 135 56 b 197 -7 135 21 163 -7 b 261 56 232 -7 261 21 l 261 378 l 549 378 b 764 97 758 378 764 189 l 764 56 b 828 -7 764 18 789 -7 b 890 56 863 -7 890 21 z m 513 497 l 261 497 l 261 850 l 506 850 b 772 678 711 850 772 781 b 513 497 772 560 668 497 z "},"S":{"ha":856,"x_min":0,"x_max":0,"o":"m 207 708 b 454 867 207 813 314 867 b 678 829 539 867 614 851 b 700 824 685 826 693 824 b 756 882 735 824 756 854 b 717 938 756 915 736 931 b 440 983 642 965 549 983 b 81 699 206 983 81 853 b 671 265 81 357 671 471 b 428 106 671 144 565 106 b 154 163 308 106 217 135 b 128 168 144 167 136 168 b 71 110 93 168 71 140 b 110 53 71 85 89 61 b 440 -14 190 18 301 -14 b 796 257 656 -14 796 100 b 207 708 796 624 207 468 z "},"T":{"ha":849,"x_min":0,"x_max":0,"o":"m 769 969 l 78 969 b 19 910 44 969 19 943 b 78 851 19 876 44 851 l 361 851 l 361 56 b 424 -7 361 21 389 -7 b 488 56 458 -7 488 21 l 488 851 l 769 851 b 829 910 803 851 829 876 b 769 969 829 943 803 969 z "},"U":{"ha":1053,"x_min":0,"x_max":0,"o":"m 861 976 b 799 913 826 976 799 947 l 799 360 b 526 101 799 186 663 101 b 254 360 390 101 254 186 l 254 913 b 190 976 254 947 225 976 b 128 913 156 976 128 947 l 128 364 b 526 -14 128 103 340 -14 b 925 364 713 -14 925 103 l 925 913 b 861 976 925 947 896 976 z "},"V":{"ha":964,"x_min":0,"x_max":0,"o":"m 156 933 b 96 976 144 960 121 976 b 33 913 57 976 33 950 b 38 889 33 906 35 896 l 381 57 b 467 -7 399 17 428 -7 l 497 -7 b 583 57 536 -7 565 17 l 926 889 b 931 913 929 896 931 906 b 868 976 931 950 907 976 b 808 933 843 976 819 960 l 482 119 z "},"W":{"ha":1399,"x_min":0,"x_max":0,"o":"m 700 976 b 628 924 667 976 638 954 l 393 160 l 160 926 b 97 976 151 956 128 976 b 36 915 61 976 33 950 b 40 892 36 908 38 901 l 313 56 b 394 -7 328 13 360 -7 b 476 56 432 -7 465 19 l 700 764 l 924 56 b 1006 -7 935 19 968 -7 b 1088 56 1040 -7 1072 13 l 1360 892 b 1364 915 1363 901 1364 908 b 1303 976 1367 950 1339 976 b 1240 926 1272 976 1249 956 l 1007 160 l 772 924 b 700 976 763 954 733 976 z "},"X":{"ha":929,"x_min":0,"x_max":0,"o":"m 857 92 l 536 486 l 857 882 b 868 917 864 892 868 904 b 807 976 868 950 840 976 b 761 954 788 976 771 968 l 468 579 l 175 951 b 124 976 164 967 144 976 b 63 915 89 976 63 950 b 75 876 63 900 67 888 l 393 485 l 72 90 b 60 51 64 79 60 65 b 118 -7 60 19 86 -7 b 167 18 139 -7 154 3 l 460 393 l 757 19 b 807 -7 768 4 786 -7 b 869 56 846 -7 869 22 b 857 92 869 69 865 82 z "},"Y":{"ha":896,"x_min":0,"x_max":0,"o":"m 449 522 l 158 944 b 103 976 144 965 126 976 b 42 913 67 976 40 947 b 53 875 42 899 46 886 l 385 410 l 385 56 b 449 -7 385 21 414 -7 b 511 56 483 -7 511 21 l 511 410 l 844 875 b 856 913 851 886 856 899 b 794 976 857 947 831 976 b 739 944 771 976 753 965 z "},"Z":{"ha":886,"x_min":0,"x_max":0,"o":"m 764 118 l 219 118 l 793 828 b 815 883 807 843 815 865 b 731 969 815 929 783 969 l 128 969 b 68 908 94 969 68 942 b 128 849 68 875 94 849 l 663 849 l 82 132 b 65 81 71 118 65 100 b 146 0 65 36 101 0 l 764 0 b 824 58 797 0 824 25 b 764 118 824 92 797 118 z "},"[":{"ha":447,"x_min":0,"x_max":0,"o":"m 358 -85 l 231 -85 l 231 917 l 358 917 b 408 967 386 917 408 939 b 358 1017 408 994 386 1017 l 182 1017 b 121 956 149 1017 121 989 l 121 -122 b 182 -183 121 -156 149 -183 l 358 -183 b 408 -133 386 -183 408 -160 b 358 -85 408 -107 386 -85 z "},"\\":{"ha":615,"x_min":0,"x_max":0,"o":"m 122 1061 b 65 1004 89 1061 65 1036 b 69 983 65 997 68 988 l 438 -93 b 492 -132 444 -115 464 -132 b 549 -75 525 -132 549 -107 b 544 -54 549 -68 546 -58 l 176 1022 b 122 1061 169 1044 150 1061 z "},"]":{"ha":447,"x_min":0,"x_max":0,"o":"m 89 -85 b 39 -133 61 -85 39 -107 b 89 -183 39 -160 61 -183 l 265 -183 b 326 -122 299 -183 326 -156 l 326 956 b 265 1017 326 989 299 1017 l 89 1017 b 39 967 61 1017 39 994 b 89 917 39 939 61 917 l 217 917 l 217 -85 z "},"^":{"ha":728,"x_min":0,"x_max":0,"o":"m 336 975 b 268 928 300 975 282 954 l 122 651 b 114 626 118 643 114 636 b 164 576 114 600 135 576 b 200 592 179 576 192 582 b 363 856 203 594 208 606 b 525 592 519 603 522 594 b 561 576 533 582 546 576 b 611 626 590 576 611 600 b 603 651 611 636 607 643 l 457 928 b 389 975 443 954 425 975 z "},"_":{"ha":921,"x_min":0,"x_max":0,"o":"m 803 -112 l 118 -112 b 72 -158 93 -112 72 -133 b 118 -204 72 -183 93 -204 l 803 -204 b 849 -158 828 -204 849 -183 b 803 -112 849 -133 828 -112 z "},"`":{"ha":342,"x_min":0,"x_max":0,"o":"m 147 1003 b 96 951 117 1003 96 982 b 110 917 96 939 100 928 l 206 803 b 236 788 214 793 222 788 b 274 825 258 788 274 803 b 264 851 274 836 267 847 l 193 976 b 147 1003 185 992 171 1003 z "},"a":{"ha":771,"x_min":0,"x_max":0,"o":"m 376 722 b 136 672 278 722 201 700 b 100 619 113 663 100 643 b 151 567 100 589 124 567 b 169 569 157 567 164 568 b 354 603 221 586 276 603 b 540 431 479 603 540 554 l 540 419 l 372 419 b 53 194 156 419 53 325 b 279 -14 53 64 158 -14 b 540 92 410 -14 490 40 l 540 56 b 603 -7 540 21 568 -7 b 667 56 638 -7 667 21 l 667 449 b 376 722 667 585 579 722 z m 326 97 b 179 208 214 97 179 149 b 389 318 179 288 258 318 l 540 318 l 540 201 b 326 97 493 147 413 97 z "},"b":{"ha":876,"x_min":0,"x_max":0,"o":"m 474 722 b 236 617 376 722 300 683 l 236 957 b 172 1021 236 993 208 1021 b 110 957 138 1021 110 993 l 110 56 b 172 -7 110 21 138 -7 b 236 56 208 -7 236 21 l 236 92 b 474 -14 300 25 376 -14 b 810 354 642 -14 810 118 b 474 722 810 590 642 722 z m 456 104 b 236 208 365 104 290 149 l 236 500 b 456 604 290 560 365 604 b 683 354 588 604 683 518 b 456 104 683 190 588 104 z "},"c":{"ha":744,"x_min":0,"x_max":0,"o":"m 636 157 b 606 149 625 157 618 156 b 446 104 557 124 518 104 b 190 354 285 104 190 206 b 446 604 190 503 285 604 b 606 560 518 604 557 585 b 636 551 618 553 625 551 b 689 607 665 551 689 581 b 661 656 689 628 678 644 b 435 722 614 686 544 722 b 64 354 238 722 64 586 b 435 -14 64 122 238 -14 b 661 53 544 -14 614 22 b 689 101 678 64 689 81 b 636 157 689 128 665 157 z "},"d":{"ha":876,"x_min":0,"x_max":0,"o":"m 403 722 b 67 354 235 722 67 590 b 403 -14 67 118 235 -14 b 640 92 500 -14 576 25 l 640 56 b 704 -7 640 21 668 -7 b 767 56 739 -7 767 21 l 767 957 b 704 1021 767 993 739 1021 b 640 957 668 1021 640 993 l 640 617 b 403 722 576 683 500 722 z m 421 104 b 193 354 289 104 193 190 b 421 604 193 518 289 604 b 640 500 511 604 586 560 l 640 208 b 421 104 586 149 511 104 z "},"e":{"ha":792,"x_min":0,"x_max":0,"o":"m 651 153 b 626 147 642 153 635 151 b 439 104 575 121 522 104 b 196 310 289 104 210 185 l 667 310 b 731 372 706 310 731 338 b 400 722 731 557 614 722 b 68 354 169 722 68 542 b 428 -14 68 121 201 -14 b 671 47 549 -14 610 13 b 707 99 690 58 707 76 b 651 153 707 131 681 153 z m 400 615 b 606 413 489 615 597 557 l 196 413 b 400 615 204 557 311 615 z "},"f":{"ha":528,"x_min":0,"x_max":0,"o":"m 403 907 b 472 899 429 907 450 899 b 524 951 501 899 524 925 b 492 1000 524 974 508 992 b 371 1028 458 1017 417 1028 b 163 789 272 1028 163 964 l 163 708 l 81 708 b 26 654 50 708 26 685 b 81 600 26 624 50 600 l 163 600 l 163 56 b 225 -7 163 21 190 -7 b 289 56 261 -7 289 21 l 289 600 l 463 600 b 517 654 493 600 517 624 b 463 708 517 685 493 708 l 289 708 l 289 785 b 403 907 289 883 333 907 z "},"g":{"ha":876,"x_min":0,"x_max":0,"o":"m 703 715 b 640 651 668 715 640 686 l 640 617 b 403 722 583 678 507 722 b 67 361 249 722 67 607 b 403 0 67 115 249 0 b 640 106 507 0 583 44 l 640 13 b 428 -214 640 -137 569 -214 b 199 -161 333 -214 257 -190 b 174 -156 192 -158 183 -156 b 118 -212 142 -156 118 -185 b 143 -261 118 -239 129 -253 b 440 -333 208 -299 328 -333 b 767 31 649 -333 767 -203 l 767 651 b 703 715 767 686 738 715 z m 640 218 b 429 115 589 165 525 115 b 193 361 297 115 193 194 b 429 607 193 528 297 607 b 640 504 525 607 589 557 z "},"h":{"ha":846,"x_min":0,"x_max":0,"o":"m 494 722 b 236 594 371 722 294 658 l 236 957 b 172 1021 236 993 207 1021 b 110 957 138 1021 110 993 l 110 56 b 172 -7 110 21 138 -7 b 236 56 207 -7 236 21 l 236 472 b 464 606 292 542 364 606 b 617 436 572 606 617 542 l 617 56 b 679 -7 617 21 644 -7 b 743 56 714 -7 743 21 l 743 450 b 494 722 743 599 653 722 z "},"i":{"ha":357,"x_min":0,"x_max":0,"o":"m 178 715 b 115 651 143 715 115 688 l 115 56 b 178 -7 115 21 143 -7 b 242 56 214 -7 242 21 l 242 651 b 178 715 242 688 214 715 z m 254 929 b 183 1000 254 968 222 1000 b 175 1000 181 1000 178 1000 b 104 929 136 1000 104 968 b 104 924 104 925 104 925 b 175 853 104 885 136 853 b 183 853 181 853 182 853 b 254 924 222 853 254 885 b 254 929 254 925 254 928 z "},"j":{"ha":357,"x_min":0,"x_max":0,"o":"m 178 714 b 115 650 143 714 115 686 l 115 -140 b 31 -222 115 -215 79 -222 b -11 -218 14 -222 1 -218 b -64 -271 -42 -218 -64 -243 b -28 -321 -64 -294 -50 -314 b 60 -333 -3 -329 26 -333 b 242 -143 193 -333 242 -250 l 242 650 b 178 714 242 686 214 714 z m 254 929 b 183 1000 254 968 222 1000 b 175 1000 181 1000 178 1000 b 104 929 136 1000 104 968 b 104 924 104 925 104 925 b 175 853 104 885 136 853 b 183 853 181 853 182 853 b 254 924 222 853 254 885 b 254 929 254 925 254 928 z "},"k":{"ha":758,"x_min":0,"x_max":0,"o":"m 697 92 l 446 425 l 646 604 b 669 651 665 624 669 640 b 608 713 669 679 656 713 b 567 694 592 713 578 704 l 236 389 l 236 957 b 172 1021 236 992 207 1021 b 110 957 138 1021 110 992 l 110 56 b 172 -7 110 21 138 -7 b 236 56 207 -7 236 21 l 236 235 l 357 344 l 596 19 b 647 -7 608 4 628 -7 b 711 54 685 -7 711 17 b 697 92 711 68 706 81 z "},"l":{"ha":368,"x_min":0,"x_max":0,"o":"m 183 1021 b 121 957 149 1021 121 993 l 121 56 b 183 -7 121 21 149 -7 b 247 56 219 -7 247 21 l 247 957 b 183 1021 247 993 219 1021 z "},"m":{"ha":1276,"x_min":0,"x_max":0,"o":"m 940 722 b 685 579 788 722 717 632 b 472 722 656 651 583 722 b 236 594 340 722 275 649 l 236 651 b 172 715 236 686 207 715 b 110 651 138 715 110 686 l 110 56 b 172 -7 110 21 138 -7 b 236 56 207 -7 236 21 l 236 472 b 436 606 274 535 331 606 b 578 431 542 606 578 547 l 578 56 b 640 -7 578 21 606 -7 b 704 56 675 -7 704 21 l 704 472 b 904 606 742 535 799 606 b 1046 431 1010 606 1046 547 l 1046 56 b 1108 -7 1046 21 1074 -7 b 1172 56 1143 -7 1172 21 l 1172 456 b 940 722 1172 579 1104 722 z "},"n":{"ha":846,"x_min":0,"x_max":0,"o":"m 494 722 b 236 594 371 722 294 658 l 236 651 b 172 715 236 688 207 715 b 110 651 138 715 110 688 l 110 56 b 172 -7 110 21 138 -7 b 236 56 207 -7 236 21 l 236 472 b 464 606 292 542 364 606 b 617 436 572 606 617 542 l 617 56 b 679 -7 617 21 644 -7 b 743 56 714 -7 743 21 l 743 450 b 494 722 743 599 653 722 z "},"o":{"ha":844,"x_min":0,"x_max":0,"o":"m 422 722 b 67 354 207 722 67 574 b 422 -14 67 135 207 -14 b 778 354 636 -14 778 135 b 422 722 778 574 636 722 z m 422 101 b 193 356 315 101 193 171 b 422 607 193 539 315 607 b 651 356 528 607 651 539 b 422 101 651 171 528 101 z "},"p":{"ha":876,"x_min":0,"x_max":0,"o":"m 474 -14 b 810 354 642 -14 810 118 b 474 722 810 590 642 722 b 236 617 376 722 300 683 l 236 653 b 172 715 236 688 208 715 b 110 653 138 715 110 688 l 110 -262 b 172 -326 110 -299 138 -326 b 236 -262 208 -326 236 -299 l 236 92 b 474 -14 300 25 376 -14 z m 456 604 b 683 354 588 604 683 518 b 456 104 683 190 588 104 b 236 208 365 104 290 149 l 236 500 b 456 604 290 560 365 604 z "},"q":{"ha":876,"x_min":0,"x_max":0,"o":"m 403 -14 b 640 92 500 -14 576 25 l 640 -262 b 704 -326 640 -299 668 -326 b 767 -262 739 -326 767 -299 l 767 653 b 704 715 767 688 739 715 b 640 653 668 715 640 688 l 640 617 b 403 722 576 683 500 722 b 67 354 235 722 67 590 b 403 -14 67 118 235 -14 z m 421 604 b 640 500 511 604 586 560 l 640 208 b 421 104 586 149 511 104 b 193 354 289 104 193 190 b 421 604 193 518 289 604 z "},"r":{"ha":538,"x_min":0,"x_max":0,"o":"m 461 722 l 454 722 b 236 592 358 722 286 658 l 236 651 b 172 715 236 686 207 715 b 110 651 138 715 110 686 l 110 56 b 172 -7 110 21 138 -7 b 236 56 207 -7 236 21 l 236 478 b 451 600 285 550 360 600 l 458 600 b 522 660 494 600 522 624 b 461 722 522 694 496 722 z "},"s":{"ha":667,"x_min":0,"x_max":0,"o":"m 193 510 b 353 607 193 565 250 607 b 511 582 414 607 467 596 b 529 579 517 581 522 579 b 585 635 561 579 585 606 b 544 688 585 656 571 679 b 343 722 488 708 419 722 b 72 503 163 722 72 628 b 489 201 72 250 489 321 b 335 103 489 139 442 103 b 146 144 253 103 196 122 b 121 150 136 149 129 150 b 67 94 89 150 67 122 b 90 49 67 75 76 58 b 343 -14 161 10 242 -14 b 611 192 521 -14 611 79 b 193 510 611 464 193 365 z "},"t":{"ha":533,"x_min":0,"x_max":0,"o":"m 456 110 b 372 97 432 110 417 97 b 282 181 338 97 282 99 l 282 600 l 439 600 b 493 654 469 600 493 624 b 439 708 493 685 469 708 l 282 708 l 282 819 b 256 847 282 835 271 847 b 232 835 244 847 236 839 l 43 650 b 31 626 35 643 31 635 b 57 600 31 611 42 600 l 156 600 l 156 169 b 358 -14 156 -3 293 -14 b 474 11 403 -14 440 -4 b 506 60 493 21 506 36 b 456 110 506 89 481 110 z "},"u":{"ha":847,"x_min":0,"x_max":0,"o":"m 353 -14 b 611 114 476 -14 553 50 l 611 57 b 675 -7 611 21 640 -7 b 738 57 710 -7 738 21 l 738 653 b 675 715 738 688 710 715 b 611 653 640 715 611 688 l 611 236 b 383 103 556 167 483 103 b 231 272 275 103 231 167 l 231 653 b 168 715 231 688 203 715 b 104 653 133 715 104 688 l 104 258 b 353 -14 104 110 194 -14 z "},"v":{"ha":736,"x_min":0,"x_max":0,"o":"m 638 715 b 581 679 613 715 589 700 l 368 140 l 156 679 b 99 715 147 700 124 715 b 36 651 64 715 36 686 b 43 622 36 640 39 632 l 285 44 b 361 -7 297 17 326 -7 l 375 -7 b 451 44 410 -7 439 17 l 693 622 b 700 651 697 632 700 640 b 638 715 700 686 672 715 z "},"w":{"ha":1090,"x_min":0,"x_max":0,"o":"m 994 715 b 938 678 969 715 944 701 l 775 143 l 614 665 b 546 715 606 694 578 715 b 478 665 514 715 486 694 l 317 143 l 154 678 b 97 715 147 701 122 715 b 35 653 63 715 35 688 b 39 629 35 644 36 638 l 236 51 b 317 -7 247 19 279 -7 b 399 53 354 -7 386 19 l 546 513 l 693 53 b 775 -7 706 19 738 -7 b 856 51 813 -7 844 19 l 1053 629 b 1057 653 1056 638 1057 644 b 994 715 1057 688 1029 715 z "},"x":{"ha":753,"x_min":0,"x_max":0,"o":"m 450 358 l 669 617 b 683 656 678 628 683 642 b 619 715 683 689 657 715 b 571 692 600 715 582 707 l 378 451 l 183 692 b 133 715 174 706 156 715 b 71 653 99 715 71 692 b 86 613 71 638 76 625 l 301 350 l 86 96 b 72 57 76 83 72 71 b 132 -7 72 18 96 -7 b 186 21 154 -7 174 4 l 372 254 l 569 18 b 618 -7 581 3 599 -7 b 682 57 661 -7 682 25 b 667 97 682 68 678 85 z "},"y":{"ha":740,"x_min":0,"x_max":0,"o":"m 707 651 b 644 715 707 686 679 715 b 586 674 617 715 597 699 l 368 146 l 154 676 b 96 715 144 699 122 715 b 33 651 61 715 33 686 b 39 625 33 642 36 632 l 300 -11 l 210 -243 b 206 -265 207 -250 206 -258 b 265 -326 206 -299 232 -326 b 324 -283 294 -326 313 -308 l 703 628 b 707 651 706 635 707 643 z "},"z":{"ha":693,"x_min":0,"x_max":0,"o":"m 635 58 b 575 118 635 92 608 118 l 218 118 l 607 574 b 626 629 619 589 626 607 b 546 708 626 676 593 708 l 125 708 b 67 649 92 708 67 682 b 125 590 67 615 92 590 l 476 590 l 76 131 b 54 74 63 115 54 96 b 142 0 54 25 93 0 l 575 0 b 635 58 608 0 635 25 z "},"{":{"ha":478,"x_min":0,"x_max":0,"o":"m 390 -201 b 439 -153 417 -201 439 -179 b 390 -104 439 -126 417 -104 l 369 -104 b 288 -46 290 -104 288 -69 l 288 263 b 163 426 288 346 243 397 b 288 590 243 456 288 507 l 288 899 b 369 957 288 922 290 957 l 390 957 b 439 1006 417 957 439 979 b 390 1054 439 1032 417 1054 l 374 1054 b 179 888 263 1054 179 1024 l 179 594 b 51 482 179 549 175 503 b 4 426 19 476 4 454 b 51 371 4 399 19 376 b 179 258 175 350 179 304 l 179 -35 b 374 -201 179 -171 263 -201 z "},"|":{"ha":351,"x_min":0,"x_max":0,"o":"m 175 1029 b 119 972 143 1029 119 1004 l 119 -217 b 175 -272 119 -249 143 -272 b 232 -217 207 -272 232 -249 l 232 972 b 175 1029 232 1004 207 1029 z "},"}":{"ha":478,"x_min":0,"x_max":0,"o":"m 104 -201 b 299 -35 215 -201 299 -171 l 299 258 b 426 371 299 304 303 350 b 474 426 458 376 474 399 b 426 482 474 454 458 476 b 299 594 303 503 299 549 l 299 888 b 104 1054 299 1024 215 1054 l 88 1054 b 39 1006 61 1054 39 1032 b 88 957 39 979 61 957 l 108 957 b 190 899 188 957 190 922 l 190 590 b 315 426 190 507 235 456 b 190 263 235 397 190 346 l 190 -46 b 108 -104 190 -69 188 -104 l 88 -104 b 39 -153 61 -104 39 -126 b 88 -201 39 -179 61 -201 z "},"~":{"ha":886,"x_min":0,"x_max":0,"o":"m 754 508 b 721 488 738 508 726 499 b 622 404 693 438 693 404 b 279 510 521 404 428 510 b 103 326 183 510 103 414 b 139 290 103 307 119 290 b 172 317 156 290 168 301 b 269 392 185 361 214 392 b 611 286 371 392 464 286 b 788 465 696 286 765 344 b 754 508 793 496 772 508 z "}," ":{"ha":361,"x_min":0,"x_max":0,"o":""},"¡":{"ha":360,"x_min":0,"x_max":0,"o":"m 181 440 b 133 400 151 440 135 424 l 108 -58 l 108 -196 b 181 -268 108 -236 140 -268 b 251 -196 221 -268 251 -236 l 251 -58 l 226 400 b 181 440 225 424 210 440 z m 181 549 b 264 631 226 549 264 586 b 181 714 264 676 226 714 b 99 631 136 714 99 676 b 181 549 99 586 136 549 z "},"¢":{"ha":765,"x_min":0,"x_max":0,"o":"m 582 861 b 544 835 565 861 550 850 l 504 717 b 432 722 482 719 458 722 b 61 354 235 722 61 586 b 265 21 61 190 146 75 l 219 -114 b 215 -132 218 -117 215 -126 b 254 -171 215 -153 232 -171 b 292 -146 271 -171 286 -162 l 340 -3 b 432 -14 369 -10 400 -14 b 658 53 542 -14 611 22 b 686 101 675 64 686 81 b 633 157 686 128 663 157 b 603 149 622 157 615 156 b 443 104 554 124 515 104 b 379 110 419 104 399 106 l 543 588 l 603 560 b 633 551 615 553 622 551 b 686 607 663 551 686 581 b 658 656 686 628 675 644 b 581 696 638 669 611 685 l 618 807 b 621 821 619 811 621 817 b 582 861 621 842 606 861 z m 188 354 b 443 604 188 503 282 604 b 465 603 450 604 458 604 l 306 136 b 188 354 229 176 188 254 z "},"£":{"ha":839,"x_min":0,"x_max":0,"o":"m 728 129 b 706 124 721 129 710 125 b 618 108 678 114 651 108 b 344 165 518 108 453 165 b 310 164 332 165 321 164 b 368 363 339 210 368 278 b 363 426 368 385 367 406 l 594 426 b 626 457 613 426 626 439 b 594 489 626 475 613 489 l 349 489 b 300 703 328 561 300 631 b 517 861 300 778 344 861 b 668 835 575 861 621 850 b 694 829 672 833 686 829 b 753 888 729 829 753 856 b 711 943 753 915 735 933 b 511 983 654 967 590 983 b 174 697 311 983 174 878 b 218 489 174 615 199 551 l 85 489 b 54 457 67 489 54 475 b 85 426 54 439 67 426 l 235 426 b 243 354 240 403 243 379 b 115 82 243 240 175 139 b 96 39 103 71 96 57 b 147 -10 96 13 119 -10 b 179 1 160 -10 169 -6 b 329 49 218 28 268 49 b 606 -14 447 49 489 -14 b 753 24 660 -14 710 0 b 785 74 772 35 785 53 b 728 129 785 106 760 129 z "},"¤":{"ha":928,"x_min":0,"x_max":0,"o":"m 143 113 b 179 128 158 113 168 118 l 271 218 b 464 156 325 179 392 156 b 657 218 536 156 603 179 l 749 128 b 785 113 760 118 769 113 b 836 164 815 113 836 136 b 821 200 836 179 831 190 l 731 290 b 793 485 769 346 793 413 b 731 679 793 557 769 624 l 821 769 b 836 806 831 779 836 790 b 785 857 836 833 815 857 b 749 842 769 857 760 851 l 657 751 b 464 814 603 790 536 814 b 271 751 392 814 325 790 l 179 842 b 143 857 168 851 158 857 b 92 806 113 857 92 833 b 107 769 92 790 97 779 l 197 679 b 135 485 158 624 135 557 b 197 290 135 413 158 346 l 107 200 b 92 164 97 190 92 179 b 143 113 92 136 113 113 z m 464 701 b 681 485 583 701 681 604 b 464 268 681 365 583 268 b 247 485 344 268 247 365 b 464 701 247 604 344 701 z "},"¥":{"ha":914,"x_min":0,"x_max":0,"o":"m 217 950 b 157 989 204 972 188 989 b 90 924 121 989 90 963 b 101 888 90 910 94 899 l 335 507 l 199 507 b 147 454 169 507 147 483 b 199 403 147 425 168 403 l 394 403 l 394 276 l 199 276 b 147 224 169 276 147 253 b 199 172 147 194 168 172 l 394 172 l 394 54 b 457 -8 394 19 424 -8 b 519 54 490 -8 519 19 l 519 172 l 715 172 b 767 224 746 172 767 194 b 715 276 767 253 744 276 l 519 276 l 519 403 l 715 403 b 767 454 746 403 767 425 b 715 507 767 483 744 507 l 579 507 l 813 888 b 824 924 819 899 824 910 b 757 989 824 963 793 989 b 697 950 726 989 710 972 l 457 529 z "},"§":{"ha":735,"x_min":0,"x_max":0,"o":"m 528 229 b 665 406 600 253 665 303 b 246 769 665 658 246 633 b 403 867 246 832 296 867 b 563 840 465 867 518 857 b 583 836 569 838 576 836 b 640 892 613 836 640 863 b 603 946 640 918 624 938 b 394 983 542 971 471 983 b 126 778 217 983 126 890 b 215 610 126 699 164 647 b 79 435 144 586 79 538 b 499 71 79 181 499 207 b 342 -26 499 8 449 -26 b 149 13 263 -26 199 -12 b 119 21 140 17 129 21 b 65 -35 89 21 65 -4 b 88 -81 65 -53 74 -72 b 350 -143 156 -124 249 -143 b 618 63 528 -143 618 -50 b 528 229 618 142 581 193 z m 444 275 b 196 443 328 325 196 350 b 299 565 196 517 242 551 b 549 397 415 515 549 490 b 444 275 549 324 503 289 z "},"¨":{"ha":556,"x_min":0,"x_max":0,"o":"m 158 940 b 88 869 119 940 88 908 b 158 799 88 831 119 799 b 229 869 197 799 229 831 b 158 940 229 908 197 940 z m 393 940 b 322 869 354 940 322 908 b 393 799 322 831 354 799 b 464 869 432 799 464 831 b 393 940 464 908 432 940 z "},"©":{"ha":1138,"x_min":0,"x_max":0,"o":"m 569 -12 b 1068 485 844 -12 1067 211 b 569 982 1067 758 844 982 b 71 485 294 982 71 758 b 569 -12 71 211 294 -12 z m 568 910 b 996 485 804 910 996 718 b 568 60 996 251 804 60 b 143 485 335 60 143 251 b 568 910 143 718 335 910 z m 813 349 b 817 367 815 354 817 361 b 772 411 817 392 797 411 b 729 381 758 411 743 406 b 578 288 699 326 651 288 b 403 485 461 288 403 381 b 578 682 403 589 461 682 b 729 589 651 682 699 643 b 772 558 743 564 758 558 b 817 603 797 558 817 578 b 813 621 817 608 815 615 b 578 767 768 711 688 767 b 310 485 419 767 310 656 b 578 203 310 314 419 203 b 813 349 688 203 768 258 z "},"ª":{"ha":674,"x_min":0,"x_max":0,"o":"m 524 396 l 131 396 b 92 357 110 396 92 378 b 131 318 92 336 110 318 l 524 318 b 563 357 544 318 563 336 b 524 396 563 378 544 396 z m 336 768 b 113 619 185 768 113 711 b 274 471 113 526 188 471 b 442 538 358 471 413 504 l 442 525 b 492 475 442 497 464 475 b 542 525 519 475 542 497 l 542 790 b 339 983 542 886 481 983 b 171 950 274 983 218 968 b 139 908 153 943 139 926 b 183 864 139 885 158 864 b 197 867 188 864 193 865 b 324 889 232 879 274 889 b 442 771 401 889 442 856 l 442 768 z m 306 561 b 213 628 235 561 213 592 b 347 693 213 676 264 693 l 442 693 l 442 626 b 306 561 410 592 360 561 z "},"«":{"ha":813,"x_min":0,"x_max":0,"o":"m 421 82 b 408 118 421 96 417 108 l 186 354 l 408 590 b 421 626 417 600 421 613 b 367 681 421 658 397 681 b 328 665 351 681 336 675 l 100 414 b 75 354 86 399 75 376 b 100 294 75 332 86 310 l 328 43 b 367 28 336 33 351 28 b 421 82 397 28 421 50 z m 710 82 b 697 118 710 96 706 108 l 475 354 l 697 590 b 710 626 706 600 710 613 b 656 681 710 658 686 681 b 617 665 640 681 625 675 l 389 414 b 364 354 375 399 364 376 b 389 294 364 332 375 310 l 617 43 b 656 28 625 33 640 28 b 710 82 686 28 710 50 z "},"¬":{"ha":804,"x_min":0,"x_max":0,"o":"m 631 532 l 151 532 b 101 482 124 532 101 510 b 151 432 101 454 124 432 l 585 432 l 585 285 b 636 233 585 256 607 233 b 689 285 665 233 689 256 l 689 474 b 631 532 689 506 663 532 z "},"®":{"ha":1138,"x_min":0,"x_max":0,"o":"m 569 983 b 71 485 294 983 71 760 b 569 -14 71 210 294 -14 b 1068 485 844 -14 1068 210 b 569 983 1068 760 844 983 z m 568 58 b 143 486 335 58 143 250 b 568 911 143 719 335 911 b 996 486 804 911 996 719 b 568 58 996 250 804 58 z m 810 594 b 592 761 810 689 744 761 l 425 761 b 363 697 390 761 363 732 l 363 247 b 408 201 363 221 382 201 b 456 247 435 201 456 221 l 456 415 l 607 415 b 708 274 710 415 708 321 l 708 249 b 756 201 708 222 729 201 b 803 249 782 201 803 222 l 803 286 b 707 460 803 396 751 444 b 810 594 761 481 810 524 z m 588 497 l 456 497 l 456 681 l 585 681 b 718 592 686 681 718 644 b 588 497 718 529 664 497 z "},"¯":{"ha":433,"x_min":0,"x_max":0,"o":"m 378 900 l 53 900 b 11 858 29 900 11 882 b 53 817 11 835 29 817 l 378 817 b 419 858 401 817 419 835 b 378 900 419 882 401 900 z "},"°":{"ha":525,"x_min":0,"x_max":0,"o":"m 263 983 b 72 793 158 983 72 899 b 263 603 72 689 158 603 b 453 793 368 603 453 689 b 263 983 453 899 368 983 z m 263 675 b 144 793 197 675 144 728 b 263 911 144 858 197 911 b 381 793 328 911 381 858 b 263 675 381 728 328 675 z "},"±":{"ha":842,"x_min":0,"x_max":0,"o":"m 701 107 l 139 107 b 86 53 108 107 86 83 b 139 0 86 22 108 0 l 701 0 b 756 53 732 0 756 22 b 701 107 756 83 732 107 z m 139 475 l 367 475 l 367 256 b 421 201 367 225 390 201 b 475 256 451 201 475 225 l 475 475 l 701 475 b 756 528 732 475 756 497 b 701 582 756 558 732 582 l 475 582 l 475 801 b 421 856 475 832 451 856 b 367 801 390 856 367 832 l 367 582 l 139 582 b 86 528 108 582 86 558 b 139 475 86 497 108 475 z "},"²":{"ha":514,"x_min":0,"x_max":0,"o":"m 413 708 l 149 708 b 449 1018 200 783 449 863 b 264 1181 449 1110 372 1181 b 83 1135 188 1181 125 1161 b 64 1100 69 1126 64 1114 b 103 1061 64 1076 81 1061 b 121 1065 110 1061 115 1063 b 253 1096 151 1082 196 1096 b 361 1013 332 1096 361 1058 b 53 682 361 901 53 838 b 107 626 53 654 75 626 l 413 626 b 454 667 436 626 454 643 b 413 708 454 690 436 708 z "},"³":{"ha":514,"x_min":0,"x_max":0,"o":"m 342 908 b 428 1033 381 924 428 960 b 239 1181 428 1115 374 1181 b 83 1139 181 1181 128 1163 b 57 1103 65 1129 57 1115 b 96 1065 57 1081 76 1065 b 114 1069 101 1065 108 1067 b 233 1096 143 1083 182 1096 b 342 1026 283 1096 342 1081 b 196 946 342 965 275 946 l 189 946 b 147 904 165 946 147 928 b 189 863 147 881 165 863 l 204 863 b 360 776 306 863 360 835 b 232 704 360 725 304 704 b 106 728 179 704 138 718 b 90 731 100 729 96 731 b 50 690 69 731 50 713 b 74 653 50 674 61 660 b 244 618 114 631 171 618 b 447 774 393 618 447 694 b 342 908 447 856 392 893 z "},"´":{"ha":333,"x_min":0,"x_max":0,"o":"m 193 1003 b 147 976 169 1003 156 992 l 76 851 b 67 825 74 847 67 836 b 104 788 67 803 82 788 b 135 803 118 788 126 793 l 231 917 b 244 951 240 928 244 939 b 193 1003 244 982 224 1003 z "},"µ":{"ha":839,"x_min":0,"x_max":0,"o":"m 688 715 b 624 653 653 715 624 688 l 624 236 b 396 103 568 167 496 103 b 243 272 288 103 243 167 l 243 653 b 181 715 243 688 215 715 b 117 653 146 715 117 688 l 117 -240 b 179 -303 117 -275 144 -303 b 243 -240 214 -303 243 -275 l 243 24 b 372 -14 274 3 318 -14 b 624 114 496 -14 565 50 l 624 57 b 688 -7 624 21 653 -7 b 750 57 722 -7 750 21 l 750 653 b 688 715 750 688 722 715 z "},"¶":{"ha":1017,"x_min":0,"x_max":0,"o":"m 900 969 l 411 969 b 54 613 214 969 54 810 b 411 256 54 415 214 256 l 461 256 l 461 -256 b 515 -311 461 -286 485 -311 b 571 -256 546 -311 571 -286 l 571 860 l 726 860 l 726 -256 b 781 -311 726 -286 750 -311 b 836 -256 811 -311 836 -286 l 836 860 l 900 860 b 956 914 931 860 956 883 b 900 969 956 944 931 969 z "},"·":{"ha":361,"x_min":0,"x_max":0,"o":"m 188 478 l 174 478 b 96 400 131 478 96 443 l 96 392 b 174 314 96 349 131 314 l 188 314 b 265 392 231 314 265 349 l 265 400 b 188 478 265 443 231 478 z "},"¸":{"ha":426,"x_min":0,"x_max":0,"o":"m 250 -82 b 203 -87 233 -82 219 -83 l 267 24 l 208 24 l 119 -118 b 114 -137 117 -122 114 -128 b 139 -160 114 -150 126 -160 b 153 -156 144 -160 150 -157 b 214 -140 178 -143 194 -140 b 264 -183 242 -140 264 -156 b 185 -247 264 -232 229 -247 b 103 -224 161 -247 133 -240 b 89 -219 100 -222 94 -219 b 63 -247 71 -219 63 -233 b 78 -271 63 -257 71 -267 b 203 -307 125 -300 172 -307 b 357 -179 301 -307 357 -265 b 250 -82 357 -121 313 -82 z "},"¹":{"ha":514,"x_min":0,"x_max":0,"o":"m 392 708 l 322 708 l 322 1119 b 263 1179 322 1153 299 1179 b 235 1172 253 1179 243 1176 l 135 1121 b 108 1082 118 1113 108 1097 b 150 1040 108 1058 128 1040 b 171 1046 158 1040 164 1043 l 233 1076 l 233 708 l 150 708 b 110 667 126 708 110 690 b 150 626 110 643 126 626 l 392 626 b 433 667 415 626 433 643 b 392 708 433 690 415 708 z "},"º":{"ha":714,"x_min":0,"x_max":0,"o":"m 357 983 b 110 728 207 983 110 881 b 357 471 110 575 207 471 b 604 728 507 471 604 575 b 357 983 604 881 507 983 z m 357 560 b 210 729 289 560 210 607 b 357 896 210 850 289 896 b 504 729 424 896 504 850 b 357 560 504 607 424 560 z m 578 396 l 136 396 b 97 357 115 396 97 378 b 136 318 97 336 115 318 l 578 318 b 617 357 599 318 617 336 b 578 396 617 378 599 396 z "},"»":{"ha":813,"x_min":0,"x_max":0,"o":"m 392 82 b 446 28 392 50 415 28 b 485 43 461 28 476 33 l 713 294 b 738 354 726 310 738 332 b 713 414 738 376 726 399 l 485 665 b 446 681 476 675 461 681 b 392 626 415 681 392 658 b 404 590 392 613 396 600 l 626 354 l 404 118 b 392 82 396 108 392 96 z m 103 82 b 157 28 103 50 126 28 b 196 43 172 28 188 33 l 424 294 b 449 354 438 310 449 332 b 424 414 449 376 438 399 l 196 665 b 157 681 188 675 172 681 b 103 626 126 681 103 658 b 115 590 103 613 107 600 l 338 354 l 115 118 b 103 82 107 108 103 96 z "},"¼":{"ha":1306,"x_min":0,"x_max":0,"o":"m 1163 215 l 1113 215 l 1113 492 b 1054 550 1113 524 1088 550 l 1043 550 b 993 521 1021 550 1006 536 l 764 232 b 749 192 754 219 749 207 b 807 133 749 160 775 133 l 1024 133 l 1024 38 b 1068 -7 1024 13 1043 -7 b 1113 38 1093 -7 1113 13 l 1113 133 l 1163 133 b 1204 174 1186 133 1204 150 b 1163 215 1204 197 1186 215 z m 847 215 l 1024 440 l 1024 215 z m 364 -33 b 403 -14 379 -33 394 -28 l 978 933 b 985 958 982 942 985 950 b 938 1006 985 986 963 1006 b 899 986 922 1006 907 1000 l 324 39 b 317 14 319 31 317 22 b 364 -33 317 -14 339 -33 z m 401 513 l 332 513 l 332 924 b 272 983 332 957 308 983 b 244 976 263 983 253 981 l 144 925 b 118 886 128 917 118 901 b 160 844 118 863 138 844 b 181 850 168 844 174 847 l 243 881 l 243 513 l 160 513 b 119 471 136 513 119 494 b 160 431 119 447 136 431 l 401 431 b 443 471 425 431 443 447 b 401 513 443 494 425 513 z "},"½":{"ha":1306,"x_min":0,"x_max":0,"o":"m 393 513 l 324 513 l 324 924 b 264 983 324 957 300 983 b 236 976 254 983 244 981 l 136 925 b 110 886 119 917 110 901 b 151 844 110 863 129 844 b 172 850 160 844 165 847 l 235 881 l 235 513 l 151 513 b 111 471 128 513 111 494 b 151 431 111 447 128 431 l 393 431 b 435 471 417 431 435 447 b 393 513 435 494 417 513 z m 356 -33 b 394 -14 371 -33 386 -28 l 969 933 b 976 958 974 942 976 950 b 929 1006 976 986 954 1006 b 890 986 914 1006 899 1000 l 315 39 b 308 14 311 31 308 22 b 356 -33 308 -14 331 -33 z m 1160 82 l 896 82 b 1196 392 947 157 1196 236 b 1011 554 1196 483 1119 554 b 831 508 935 554 872 535 b 811 474 817 500 811 488 b 850 435 811 450 828 435 b 868 439 857 435 863 436 b 1000 469 899 456 943 469 b 1108 386 1079 469 1108 432 b 800 56 1108 275 800 211 b 854 0 800 28 822 0 l 1160 0 b 1201 40 1183 0 1201 17 b 1160 82 1201 64 1183 82 z "},"¾":{"ha":1306,"x_min":0,"x_max":0,"o":"m 1182 215 l 1132 215 l 1132 492 b 1074 550 1132 524 1107 550 l 1063 550 b 1013 521 1040 550 1025 536 l 783 232 b 768 192 774 219 768 207 b 826 133 768 160 794 133 l 1043 133 l 1043 38 b 1088 -7 1043 13 1063 -7 b 1132 38 1113 -7 1132 13 l 1132 133 l 1182 133 b 1224 174 1206 133 1224 150 b 1182 215 1224 197 1206 215 z m 867 215 l 1043 440 l 1043 215 z m 383 -33 b 422 -14 399 -33 414 -28 l 997 933 b 1004 958 1001 942 1004 950 b 957 1006 1004 986 982 1006 b 918 986 942 1006 926 1000 l 343 39 b 336 14 339 31 336 22 b 383 -33 336 -14 358 -33 z m 379 713 b 465 838 418 728 465 764 b 276 985 465 919 411 985 b 121 943 218 985 165 967 b 94 907 103 933 94 919 b 133 869 94 885 114 869 b 151 874 139 869 146 871 b 271 900 181 888 219 900 b 379 831 321 900 379 885 b 233 750 379 769 313 750 l 226 750 b 185 708 203 750 185 732 b 226 667 185 685 203 667 l 242 667 b 397 581 343 667 397 639 b 269 508 397 529 342 508 b 143 532 217 508 175 522 b 128 535 138 533 133 535 b 88 494 107 535 88 517 b 111 457 88 478 99 464 b 282 422 151 435 208 422 b 485 578 431 422 485 499 b 379 713 485 660 429 697 z "},"¿":{"ha":678,"x_min":0,"x_max":0,"o":"m 368 -275 b 613 -208 460 -275 535 -257 b 647 -156 631 -197 647 -182 b 592 -100 647 -125 622 -100 b 557 -111 581 -100 565 -106 b 379 -157 508 -142 442 -157 b 181 -6 239 -157 181 -100 b 438 396 181 131 438 160 b 376 450 438 425 411 450 b 315 396 344 450 315 426 b 56 -12 315 218 56 210 b 368 -275 56 -174 179 -275 z m 379 549 b 461 631 424 549 461 586 b 379 714 461 676 424 714 b 296 631 333 714 296 676 b 379 549 296 586 333 549 z "},"À":{"ha":968,"x_min":0,"x_max":0,"o":"m 408 1242 b 357 1190 378 1242 357 1221 b 371 1156 357 1178 361 1167 l 467 1042 b 497 1026 475 1032 483 1026 b 535 1064 519 1026 535 1042 b 525 1090 535 1075 528 1086 l 454 1215 b 408 1242 446 1231 432 1242 z m 926 83 l 572 919 b 492 976 560 949 533 976 l 478 976 b 397 919 436 976 410 949 l 43 83 b 36 56 39 74 36 64 b 99 -7 36 21 60 -7 b 158 32 125 -7 147 7 l 249 249 l 721 249 l 811 32 b 871 -7 822 7 844 -7 b 933 56 910 -7 933 21 b 926 83 933 64 931 74 z m 297 364 l 485 815 l 672 364 z "},"Á":{"ha":968,"x_min":0,"x_max":0,"o":"m 560 1242 b 514 1215 536 1242 522 1231 l 443 1090 b 433 1064 440 1086 433 1075 b 471 1026 433 1042 449 1026 b 501 1042 485 1026 493 1032 l 597 1156 b 611 1190 607 1167 611 1178 b 560 1242 611 1221 590 1242 z m 926 83 l 572 919 b 492 976 560 949 533 976 l 478 976 b 397 919 436 976 410 949 l 43 83 b 36 56 39 74 36 64 b 99 -7 36 21 60 -7 b 158 32 125 -7 147 7 l 249 249 l 721 249 l 811 32 b 871 -7 822 7 844 -7 b 933 56 910 -7 933 21 b 926 83 933 64 931 74 z m 297 364 l 485 815 l 672 364 z "},"Â":{"ha":968,"x_min":0,"x_max":0,"o":"m 672 1067 b 661 1093 672 1076 668 1086 l 567 1190 b 511 1218 553 1206 538 1218 l 458 1218 b 403 1190 432 1218 417 1206 l 308 1093 b 297 1067 301 1086 297 1076 b 339 1025 296 1046 315 1025 b 364 1035 347 1025 358 1029 l 485 1138 l 606 1035 b 631 1025 611 1029 622 1025 b 672 1067 654 1025 674 1046 z m 926 83 l 572 919 b 492 976 560 949 533 976 l 478 976 b 397 919 436 976 410 949 l 43 83 b 36 56 39 74 36 64 b 99 -7 36 21 60 -7 b 158 32 125 -7 147 7 l 249 249 l 721 249 l 811 32 b 871 -7 822 7 844 -7 b 933 56 910 -7 933 21 b 926 83 933 64 931 74 z m 297 364 l 485 815 l 672 364 z "},"Ã":{"ha":968,"x_min":0,"x_max":0,"o":"m 711 1167 b 679 1197 710 1183 699 1197 b 644 1168 658 1197 650 1183 b 593 1131 636 1144 622 1131 b 379 1196 518 1131 460 1196 b 263 1064 307 1196 263 1119 b 294 1032 263 1046 278 1032 b 326 1057 313 1032 322 1044 b 381 1101 338 1083 353 1101 b 594 1035 453 1101 513 1035 b 711 1167 664 1035 711 1107 z m 926 83 l 572 919 b 492 976 560 949 533 976 l 478 976 b 397 919 436 976 410 949 l 43 83 b 36 56 39 74 36 64 b 99 -7 36 21 60 -7 b 158 32 125 -7 147 7 l 249 249 l 721 249 l 811 32 b 871 -7 822 7 844 -7 b 933 56 910 -7 933 21 b 926 83 933 64 931 74 z m 297 364 l 485 815 l 672 364 z "},"Ä":{"ha":968,"x_min":0,"x_max":0,"o":""},"Å":{"ha":968,"x_min":0,"x_max":0,"o":"m 485 1275 b 354 1144 413 1275 354 1217 b 485 1014 354 1072 413 1014 b 615 1144 557 1014 615 1072 b 485 1275 615 1217 557 1275 z m 485 1076 b 417 1144 447 1076 417 1107 b 485 1213 417 1182 447 1213 b 553 1144 522 1213 553 1182 b 485 1076 553 1107 522 1076 z m 926 83 l 572 919 b 492 976 560 949 533 976 l 478 976 b 397 919 436 976 410 949 l 43 83 b 36 56 39 74 36 64 b 99 -7 36 21 60 -7 b 158 32 125 -7 147 7 l 249 249 l 721 249 l 811 32 b 871 -7 822 7 844 -7 b 933 56 910 -7 933 21 b 926 83 933 64 931 74 z m 297 364 l 485 815 l 672 364 z "},"Æ":{"ha":1444,"x_min":0,"x_max":0,"o":"m 1313 118 l 819 118 l 819 426 l 1263 426 b 1322 485 1296 426 1322 451 b 1263 544 1322 518 1296 544 l 819 544 l 819 851 l 1313 851 b 1372 910 1346 851 1372 876 b 1313 969 1372 943 1346 969 l 635 969 b 571 935 608 969 585 956 l 17 94 b 3 56 8 82 3 71 b 67 -7 3 21 31 -7 b 124 29 92 -7 111 10 l 265 249 l 693 249 l 693 63 b 756 0 693 28 721 0 l 1313 0 b 1372 58 1346 0 1372 25 b 1313 118 1372 92 1346 118 z m 693 364 l 340 364 l 658 851 l 693 851 z "},"Ç":{"ha":969,"x_min":0,"x_max":0,"o":"m 576 -82 b 529 -87 560 -82 546 -83 l 571 -14 b 881 72 703 -12 796 24 b 911 122 899 82 910 96 b 856 178 913 151 890 178 b 831 172 849 178 839 176 b 576 107 757 133 685 107 b 204 485 331 107 204 271 b 576 863 204 699 331 863 b 831 797 685 863 757 836 b 856 792 839 793 849 792 b 911 847 890 792 913 818 b 881 897 910 874 899 888 b 564 983 794 946 700 983 b 78 485 288 983 78 794 b 513 -11 78 194 261 11 l 446 -118 b 440 -137 443 -122 440 -128 b 465 -160 440 -150 453 -160 b 479 -156 471 -160 476 -157 b 540 -140 504 -143 521 -140 b 590 -183 568 -140 590 -156 b 511 -247 590 -232 556 -247 b 429 -224 488 -247 460 -240 b 415 -219 426 -222 421 -219 b 389 -247 397 -219 389 -233 b 404 -271 389 -257 397 -267 b 529 -307 451 -300 499 -307 b 683 -179 628 -307 683 -265 b 576 -82 683 -121 639 -82 z "},"È":{"ha":886,"x_min":0,"x_max":0,"o":""},"É":{"ha":886,"x_min":0,"x_max":0,"o":"m 754 118 l 261 118 l 261 426 l 704 426 b 764 485 738 426 764 451 b 704 544 764 518 738 544 l 261 544 l 261 851 l 754 851 b 814 910 788 851 814 876 b 754 969 814 943 788 969 l 197 969 b 135 906 163 969 135 940 l 135 63 b 197 0 135 28 163 0 l 754 0 b 814 58 788 0 814 25 b 754 118 814 92 788 118 z m 546 1242 b 500 1215 522 1242 508 1231 l 429 1090 b 419 1064 426 1086 419 1075 b 457 1026 419 1042 435 1026 b 488 1042 471 1026 479 1032 l 583 1156 b 597 1190 593 1167 597 1178 b 546 1242 597 1221 576 1242 z "},"Ê":{"ha":886,"x_min":0,"x_max":0,"o":""},"Ë":{"ha":886,"x_min":0,"x_max":0,"o":"m 754 118 l 261 118 l 261 426 l 704 426 b 764 485 738 426 764 451 b 704 544 764 518 738 544 l 261 544 l 261 851 l 754 851 b 814 910 788 851 814 876 b 754 969 814 943 788 969 l 197 969 b 135 906 163 969 135 940 l 135 63 b 197 0 135 28 163 0 l 754 0 b 814 58 788 0 814 25 b 754 118 814 92 788 118 z m 353 1179 b 282 1108 314 1179 282 1147 b 353 1038 282 1069 314 1038 b 424 1108 392 1038 424 1069 b 353 1179 424 1147 392 1179 z m 588 1179 b 517 1108 549 1179 517 1147 b 588 1038 517 1069 549 1038 b 658 1108 626 1038 658 1069 b 588 1179 658 1147 626 1179 z "},"Ì":{"ha":396,"x_min":0,"x_max":0,"o":""},"Í":{"ha":396,"x_min":0,"x_max":0,"o":"m 197 976 b 135 913 163 976 135 947 l 135 56 b 197 -7 135 21 163 -7 b 261 56 232 -7 261 21 l 261 913 b 197 976 261 947 232 976 z m 267 1242 b 221 1215 243 1242 229 1231 l 150 1090 b 140 1064 147 1086 140 1075 b 178 1026 140 1042 156 1026 b 208 1042 192 1026 200 1032 l 304 1156 b 318 1190 314 1167 318 1178 b 267 1242 318 1221 297 1242 z "},"Î":{"ha":396,"x_min":0,"x_max":0,"o":""},"Ï":{"ha":396,"x_min":0,"x_max":0,"o":"m 197 976 b 135 913 163 976 135 947 l 135 56 b 197 -7 135 21 163 -7 b 261 56 232 -7 261 21 l 261 913 b 197 976 261 947 232 976 z m 81 1179 b 10 1108 42 1179 10 1147 b 81 1038 10 1069 42 1038 b 151 1108 119 1038 151 1069 b 81 1179 151 1147 119 1179 z m 315 1179 b 244 1108 276 1179 244 1147 b 315 1038 244 1069 276 1038 b 386 1108 354 1038 386 1069 b 315 1179 386 1147 354 1179 z "},"Ð":{"ha":1051,"x_min":0,"x_max":0,"o":"m 486 969 l 207 969 b 144 906 172 969 144 940 l 144 531 l 69 531 b 24 483 43 531 24 510 b 69 438 24 457 43 438 l 144 438 l 144 63 b 207 0 144 28 172 0 l 486 0 b 976 485 818 0 976 251 b 486 969 976 719 818 969 z m 471 118 l 271 118 l 271 438 l 433 438 b 481 483 460 438 481 457 b 433 531 481 510 460 531 l 271 531 l 271 851 l 471 851 b 851 485 703 851 851 701 b 471 118 851 268 703 118 z "},"Ñ":{"ha":1115,"x_min":0,"x_max":0,"o":""},"Ò":{"ha":1126,"x_min":0,"x_max":0,"o":""},"Ó":{"ha":1126,"x_min":0,"x_max":0,"o":"m 564 983 b 76 485 267 983 82 775 b 564 -14 82 194 267 -14 b 1051 485 860 -14 1046 194 b 564 983 1046 775 860 983 z m 564 104 b 203 485 333 104 203 271 b 564 865 203 699 333 865 b 925 485 793 865 925 699 b 564 104 925 271 793 104 z m 629 1242 b 583 1215 606 1242 592 1231 l 513 1090 b 503 1064 510 1086 503 1075 b 540 1026 503 1042 518 1026 b 571 1042 554 1026 563 1032 l 667 1156 b 681 1190 676 1167 681 1178 b 629 1242 681 1221 660 1242 z "},"Ô":{"ha":1126,"x_min":0,"x_max":0,"o":""},"Õ":{"ha":1126,"x_min":0,"x_max":0,"o":"m 564 983 b 76 485 267 983 82 775 b 564 -14 82 194 267 -14 b 1051 485 860 -14 1046 194 b 564 983 1046 775 860 983 z m 564 104 b 203 485 333 104 203 271 b 564 865 203 699 333 865 b 925 485 793 865 925 699 b 564 104 925 271 793 104 z m 789 1167 b 757 1197 788 1183 776 1197 b 722 1168 736 1197 728 1183 b 671 1131 714 1144 700 1131 b 457 1196 596 1131 538 1196 b 340 1064 385 1196 340 1119 b 372 1032 340 1046 356 1032 b 404 1057 390 1032 400 1044 b 458 1101 415 1083 431 1101 b 672 1035 531 1101 590 1035 b 789 1167 742 1035 789 1107 z "},"Ö":{"ha":1126,"x_min":0,"x_max":0,"o":""},"×":{"ha":782,"x_min":0,"x_max":0,"o":"m 135 667 b 82 614 104 667 82 642 b 99 576 82 600 89 586 l 317 358 l 99 140 b 82 103 89 131 82 117 b 135 50 82 75 104 50 b 172 67 149 50 163 57 l 390 285 l 608 67 b 646 50 618 57 632 50 b 699 103 676 50 699 75 b 682 140 699 117 692 131 l 464 358 l 682 576 b 699 614 692 586 699 600 b 646 667 699 642 676 667 b 608 650 632 667 618 660 l 390 432 l 172 650 b 135 667 163 660 149 667 z "},"Ø":{"ha":1126,"x_min":0,"x_max":0,"o":"m 564 983 b 76 485 267 983 82 775 b 247 92 79 319 140 181 l 193 15 b 185 -8 188 7 185 0 b 219 -42 185 -26 199 -42 b 249 -28 231 -42 242 -37 l 304 51 b 564 -14 376 10 464 -14 b 1051 485 860 -14 1046 194 b 882 875 1047 649 988 786 l 936 953 b 944 976 942 961 944 968 b 910 1010 944 994 931 1010 b 881 996 899 1010 888 1006 l 825 915 b 564 983 753 958 664 983 z m 203 485 b 564 865 203 699 333 865 b 754 817 638 865 701 847 l 318 193 b 203 485 243 263 203 365 z m 564 104 b 374 151 490 104 426 121 l 811 775 b 925 485 885 706 925 601 b 564 104 925 271 793 104 z "},"Ù":{"ha":1053,"x_min":0,"x_max":0,"o":""},"Ú":{"ha":1053,"x_min":0,"x_max":0,"o":"m 861 976 b 799 913 826 976 799 947 l 799 360 b 526 101 799 186 663 101 b 254 360 390 101 254 186 l 254 913 b 190 976 254 947 225 976 b 128 913 156 976 128 947 l 128 364 b 526 -14 128 103 340 -14 b 925 364 713 -14 925 103 l 925 913 b 861 976 925 947 896 976 z m 583 1242 b 538 1215 560 1242 546 1231 l 467 1090 b 457 1064 464 1086 457 1075 b 494 1026 457 1042 472 1026 b 525 1042 508 1026 517 1032 l 621 1156 b 635 1190 631 1167 635 1178 b 583 1242 635 1221 614 1242 z "},"Û":{"ha":1053,"x_min":0,"x_max":0,"o":""},"Ü":{"ha":1053,"x_min":0,"x_max":0,"o":"m 861 976 b 799 913 826 976 799 947 l 799 360 b 526 101 799 186 663 101 b 254 360 390 101 254 186 l 254 913 b 190 976 254 947 225 976 b 128 913 156 976 128 947 l 128 364 b 526 -14 128 103 340 -14 b 925 364 713 -14 925 103 l 925 913 b 861 976 925 947 896 976 z m 410 1179 b 339 1108 371 1179 339 1147 b 410 1038 339 1069 371 1038 b 481 1108 449 1038 481 1069 b 410 1179 481 1147 449 1179 z m 644 1179 b 574 1108 606 1179 574 1147 b 644 1038 574 1069 606 1038 b 715 1108 683 1038 715 1069 b 644 1179 715 1147 683 1179 z "},"Ý":{"ha":896,"x_min":0,"x_max":0,"o":""},"Þ":{"ha":932,"x_min":0,"x_max":0,"o":"m 514 814 l 261 814 l 261 913 b 197 976 261 947 232 976 b 135 913 163 976 135 947 l 135 56 b 197 -7 135 21 163 -7 b 261 56 232 -7 261 21 l 261 197 l 514 197 b 885 506 794 197 885 358 b 514 814 885 653 794 814 z m 501 317 l 261 317 l 261 694 l 501 694 b 758 506 708 694 758 596 b 501 317 758 415 708 317 z "},"ß":{"ha":847,"x_min":0,"x_max":0,"o":"m 575 489 b 728 711 649 513 728 569 b 424 983 728 900 565 983 b 110 675 240 983 110 874 l 110 57 b 172 -6 110 22 138 -6 b 236 57 207 -6 236 22 l 236 660 b 422 865 236 825 332 865 b 601 697 533 865 601 801 b 417 532 601 608 531 544 b 364 481 386 528 364 508 b 417 429 364 450 383 429 b 656 257 553 429 656 365 b 497 99 656 126 550 99 b 394 113 458 99 424 103 b 374 117 388 115 381 117 b 319 63 342 117 319 93 b 364 10 319 35 339 18 b 518 -14 404 -4 457 -14 b 782 242 650 -14 782 68 b 575 489 782 406 661 468 z "},"à":{"ha":771,"x_min":0,"x_max":0,"o":""},"á":{"ha":771,"x_min":0,"x_max":0,"o":"m 376 722 b 136 672 278 722 201 700 b 100 619 113 663 100 643 b 151 567 100 589 124 567 b 169 569 157 567 164 568 b 354 603 221 586 276 603 b 540 431 479 603 540 554 l 540 419 l 372 419 b 53 194 156 419 53 325 b 279 -14 53 64 158 -14 b 540 92 410 -14 490 40 l 540 56 b 603 -7 540 21 568 -7 b 667 56 638 -7 667 21 l 667 449 b 376 722 667 585 579 722 z m 326 97 b 179 208 214 97 179 149 b 389 318 179 288 258 318 l 540 318 l 540 201 b 326 97 493 147 413 97 z m 438 1003 b 392 976 414 1003 400 992 l 321 851 b 311 825 318 847 311 836 b 349 788 311 803 326 788 b 379 803 363 788 371 793 l 475 917 b 489 951 485 928 489 939 b 438 1003 489 982 468 1003 z "},"â":{"ha":771,"x_min":0,"x_max":0,"o":""},"ã":{"ha":771,"x_min":0,"x_max":0,"o":"m 376 722 b 136 672 278 722 201 700 b 100 619 113 663 100 643 b 151 567 100 589 124 567 b 169 569 157 567 164 568 b 354 603 221 586 276 603 b 540 431 479 603 540 554 l 540 419 l 372 419 b 53 194 156 419 53 325 b 279 -14 53 64 158 -14 b 540 92 410 -14 490 40 l 540 56 b 603 -7 540 21 568 -7 b 667 56 638 -7 667 21 l 667 449 b 376 722 667 585 579 722 z m 326 97 b 179 208 214 97 179 149 b 389 318 179 288 258 318 l 540 318 l 540 201 b 326 97 493 147 413 97 z m 600 928 b 568 958 599 944 588 958 b 533 929 547 958 539 944 b 482 892 525 906 511 892 b 268 957 407 892 349 957 b 151 825 196 957 151 881 b 183 793 151 807 167 793 b 215 818 201 793 211 806 b 269 863 226 844 242 863 b 483 796 342 863 401 796 b 600 928 553 796 600 868 z "},"ä":{"ha":771,"x_min":0,"x_max":0,"o":""},"å":{"ha":771,"x_min":0,"x_max":0,"o":"m 376 722 b 136 672 278 722 201 700 b 100 619 113 663 100 643 b 151 567 100 589 124 567 b 169 569 157 567 164 568 b 354 603 221 586 276 603 b 540 431 479 603 540 554 l 540 419 l 372 419 b 53 194 156 419 53 325 b 279 -14 53 64 158 -14 b 540 92 410 -14 490 40 l 540 56 b 603 -7 540 21 568 -7 b 667 56 638 -7 667 21 l 667 449 b 376 722 667 585 579 722 z m 326 97 b 179 208 214 97 179 149 b 389 318 179 288 258 318 l 540 318 l 540 201 b 326 97 493 147 413 97 z m 374 1026 b 243 896 301 1026 243 968 b 374 765 243 824 301 765 b 504 896 446 765 504 824 b 374 1026 504 968 446 1026 z m 374 828 b 306 896 336 828 306 858 b 374 964 306 933 336 964 b 442 896 411 964 442 933 b 374 828 442 858 411 828 z "},"æ":{"ha":1256,"x_min":0,"x_max":0,"o":"m 1196 374 b 864 722 1196 574 1071 722 b 613 606 747 722 665 676 b 375 722 571 674 496 722 b 135 672 276 722 200 700 b 99 619 111 663 99 643 b 150 567 99 589 122 567 b 168 569 156 567 163 568 b 353 603 219 586 275 603 b 539 431 478 603 539 554 l 539 415 l 371 415 b 51 194 154 415 51 325 b 324 -14 51 64 176 -14 b 610 107 418 -14 544 7 b 892 -14 669 29 765 -14 b 1135 47 1013 -14 1074 13 b 1171 99 1154 58 1171 76 b 1115 153 1171 131 1144 153 b 1090 147 1106 153 1099 151 b 903 104 1039 121 986 104 b 657 314 742 104 671 189 l 1135 314 b 1196 374 1174 314 1196 343 z m 539 235 b 349 97 539 122 435 97 b 178 208 236 97 178 149 b 388 314 178 288 257 314 l 539 314 z m 657 415 b 864 615 665 560 775 615 b 1071 415 953 615 1063 560 z "},"ç":{"ha":746,"x_min":0,"x_max":0,"o":"m 443 -82 b 396 -87 426 -82 413 -83 l 438 -14 b 661 53 546 -12 614 22 b 689 101 678 64 689 81 b 636 157 689 128 665 157 b 606 149 625 157 618 156 b 446 104 557 124 518 104 b 190 354 285 104 190 206 b 446 604 190 503 285 604 b 606 560 518 604 557 585 b 636 551 618 553 625 551 b 689 607 665 551 689 581 b 661 656 689 628 678 644 b 435 722 614 686 544 722 b 64 354 238 722 64 586 b 379 -10 64 143 206 13 l 313 -118 b 307 -137 310 -122 307 -128 b 332 -160 307 -150 319 -160 b 346 -156 338 -160 343 -157 b 407 -140 371 -143 388 -140 b 457 -183 435 -140 457 -156 b 378 -247 457 -232 422 -247 b 296 -224 354 -247 326 -240 b 282 -219 293 -222 288 -219 b 256 -247 264 -219 256 -233 b 271 -271 256 -257 264 -267 b 396 -307 318 -300 365 -307 b 550 -179 494 -307 550 -265 b 443 -82 550 -121 506 -82 z "},"è":{"ha":792,"x_min":0,"x_max":0,"o":""},"é":{"ha":792,"x_min":0,"x_max":0,"o":"m 651 153 b 626 147 642 153 635 151 b 439 104 575 121 522 104 b 196 310 289 104 210 185 l 667 310 b 731 372 706 310 731 338 b 400 722 731 557 614 722 b 68 354 169 722 68 542 b 428 -14 68 121 201 -14 b 671 47 549 -14 610 13 b 707 99 690 58 707 76 b 651 153 707 131 681 153 z m 400 615 b 606 413 489 615 597 557 l 196 413 b 400 615 204 557 311 615 z m 457 1003 b 411 976 433 1003 419 992 l 340 851 b 331 825 338 847 331 836 b 368 788 331 803 346 788 b 399 803 382 788 390 793 l 494 917 b 508 951 504 928 508 939 b 457 1003 508 982 488 1003 z "},"ê":{"ha":792,"x_min":0,"x_max":0,"o":""},"ë":{"ha":792,"x_min":0,"x_max":0,"o":"m 651 153 b 626 147 642 153 635 151 b 439 104 575 121 522 104 b 196 310 289 104 210 185 l 667 310 b 731 372 706 310 731 338 b 400 722 731 557 614 722 b 68 354 169 722 68 542 b 428 -14 68 121 201 -14 b 671 47 549 -14 610 13 b 707 99 690 58 707 76 b 651 153 707 131 681 153 z m 400 615 b 606 413 489 615 597 557 l 196 413 b 400 615 204 557 311 615 z m 282 940 b 211 869 243 940 211 908 b 282 799 211 831 243 799 b 353 869 321 799 353 831 b 282 940 353 908 321 940 z m 517 940 b 446 869 478 940 446 908 b 517 799 446 831 478 799 b 588 869 556 799 588 831 b 517 940 588 908 556 940 z "},"ì":{"ha":357,"x_min":0,"x_max":0,"o":"m 178 715 b 115 651 143 715 115 688 l 115 56 b 178 -7 115 21 143 -7 b 242 56 214 -7 242 21 l 242 651 b 178 715 242 688 214 715 z m 110 1003 b 58 951 79 1003 58 982 b 72 917 58 939 63 928 l 168 803 b 199 788 176 793 185 788 b 236 825 221 788 236 803 b 226 851 236 836 229 847 l 156 976 b 110 1003 147 992 133 1003 z "},"í":{"ha":357,"x_min":0,"x_max":0,"o":"m 178 715 b 115 651 143 715 115 688 l 115 56 b 178 -7 115 21 143 -7 b 242 56 214 -7 242 21 l 242 651 b 178 715 242 688 214 715 z m 247 1003 b 201 976 224 1003 210 992 l 131 851 b 121 825 128 847 121 836 b 158 788 121 803 136 788 b 189 803 172 788 181 793 l 285 917 b 299 951 294 928 299 939 b 247 1003 299 982 278 1003 z "},"î":{"ha":357,"x_min":0,"x_max":0,"o":"m 178 715 b 115 651 143 715 115 688 l 115 56 b 178 -7 115 21 143 -7 b 242 56 214 -7 242 21 l 242 651 b 178 715 242 688 214 715 z m 365 828 b 354 854 365 838 361 847 l 260 951 b 204 979 246 967 231 979 l 151 979 b 96 951 125 979 110 967 l 1 854 b -10 828 -6 847 -10 838 b 32 786 -11 807 8 786 b 57 796 40 786 51 790 l 178 899 l 299 796 b 324 786 304 790 315 786 b 365 828 347 786 367 807 z "},"ï":{"ha":357,"x_min":0,"x_max":0,"o":"m 178 715 b 115 651 143 715 115 688 l 115 56 b 178 -7 115 21 143 -7 b 242 56 214 -7 242 21 l 242 651 b 178 715 242 688 214 715 z m 61 940 b -10 869 22 940 -10 908 b 61 799 -10 831 22 799 b 132 869 100 799 132 831 b 61 940 132 908 100 940 z m 296 940 b 225 869 257 940 225 908 b 296 799 225 831 257 799 b 367 869 335 799 367 831 b 296 940 367 908 335 940 z "},"ð":{"ha":832,"x_min":0,"x_max":0,"o":"m 503 885 l 581 931 b 597 961 592 938 597 949 b 563 996 597 981 582 996 b 542 989 554 996 549 993 l 447 932 b 297 1036 390 978 336 1013 b 267 1044 288 1042 278 1044 b 208 986 235 1044 208 1019 b 236 938 208 967 219 946 b 342 871 272 918 307 894 l 247 815 b 226 783 235 808 226 797 b 261 749 226 764 242 749 b 285 757 269 749 278 753 l 401 825 b 550 663 457 778 510 722 b 393 701 507 685 456 701 b 68 344 185 701 68 529 b 413 -14 68 131 204 -14 b 758 381 661 -14 758 167 b 503 885 758 597 632 768 z m 413 97 b 190 350 310 97 190 167 b 413 599 190 531 310 599 b 636 350 515 599 636 531 b 413 97 636 167 515 97 z "},"ñ":{"ha":846,"x_min":0,"x_max":0,"o":""},"ò":{"ha":844,"x_min":0,"x_max":0,"o":""},"ó":{"ha":844,"x_min":0,"x_max":0,"o":"m 422 722 b 67 354 207 722 67 574 b 422 -14 67 135 207 -14 b 778 354 636 -14 778 135 b 422 722 778 574 636 722 z m 422 101 b 193 356 315 101 193 171 b 422 607 193 539 315 607 b 651 356 528 607 651 539 b 422 101 651 171 528 101 z m 490 1003 b 444 976 467 1003 453 992 l 374 851 b 364 825 371 847 364 836 b 401 788 364 803 379 788 b 432 803 415 788 424 793 l 528 917 b 542 951 538 928 542 939 b 490 1003 542 982 521 1003 z "},"ô":{"ha":844,"x_min":0,"x_max":0,"o":""},"õ":{"ha":844,"x_min":0,"x_max":0,"o":"m 422 722 b 67 354 207 722 67 574 b 422 -14 67 135 207 -14 b 778 354 636 -14 778 135 b 422 722 778 574 636 722 z m 422 101 b 193 356 315 101 193 171 b 422 607 193 539 315 607 b 651 356 528 607 651 539 b 422 101 651 171 528 101 z m 649 928 b 617 958 647 944 636 958 b 582 929 596 958 588 944 b 531 892 574 906 560 892 b 317 957 456 892 397 957 b 200 825 244 957 200 881 b 232 793 200 807 215 793 b 264 818 250 793 260 806 b 318 863 275 844 290 863 b 532 796 390 863 450 796 b 649 928 601 796 649 868 z "},"ö":{"ha":844,"x_min":0,"x_max":0,"o":""},"÷":{"ha":989,"x_min":0,"x_max":0,"o":"m 494 274 b 424 203 456 274 424 242 b 494 132 424 164 456 132 b 565 203 533 132 565 164 b 494 274 565 242 533 274 z m 494 646 b 565 717 533 646 565 678 b 494 788 565 756 533 788 b 424 717 456 788 424 756 b 494 646 424 678 456 646 z m 831 517 l 157 517 b 101 460 125 517 101 492 b 157 404 101 428 125 404 l 831 404 b 888 460 863 404 888 428 b 831 517 888 492 863 517 z "},"ø":{"ha":844,"x_min":0,"x_max":0,"o":"m 422 722 b 67 354 207 722 67 574 b 181 71 67 235 108 136 l 140 14 b 132 -10 135 6 132 -1 b 167 -43 132 -28 146 -43 b 196 -29 178 -43 189 -39 l 238 31 b 422 -14 290 1 351 -14 b 778 354 636 -14 778 135 b 663 636 778 474 736 572 l 701 692 b 710 715 707 700 710 707 b 675 749 710 733 696 749 b 646 735 664 749 653 744 l 606 678 b 422 722 553 706 492 722 z m 193 356 b 422 607 193 539 315 607 b 536 578 460 607 500 597 l 253 174 b 193 356 217 214 193 274 z m 422 101 b 308 131 383 101 344 110 l 592 535 b 651 356 626 494 651 436 b 422 101 651 171 528 101 z "},"ù":{"ha":847,"x_min":0,"x_max":0,"o":""},"ú":{"ha":847,"x_min":0,"x_max":0,"o":"m 353 -14 b 611 114 476 -14 553 50 l 611 57 b 675 -7 611 21 640 -7 b 738 57 710 -7 738 21 l 738 653 b 675 715 738 688 710 715 b 611 653 640 715 611 688 l 611 236 b 383 103 556 167 483 103 b 231 272 275 103 231 167 l 231 653 b 168 715 231 688 203 715 b 104 653 133 715 104 688 l 104 258 b 353 -14 104 110 194 -14 z m 489 1003 b 443 976 465 1003 451 992 l 372 851 b 363 825 369 847 363 836 b 400 788 363 803 378 788 b 431 803 414 788 422 793 l 526 917 b 540 951 536 928 540 939 b 489 1003 540 982 519 1003 z "},"û":{"ha":847,"x_min":0,"x_max":0,"o":""},"ü":{"ha":847,"x_min":0,"x_max":0,"o":"m 353 -14 b 611 114 476 -14 553 50 l 611 57 b 675 -7 611 21 640 -7 b 738 57 710 -7 738 21 l 738 653 b 675 715 738 688 710 715 b 611 653 640 715 611 688 l 611 236 b 383 103 556 167 483 103 b 231 272 275 103 231 167 l 231 653 b 168 715 231 688 203 715 b 104 653 133 715 104 688 l 104 258 b 353 -14 104 110 194 -14 z m 304 940 b 233 869 265 940 233 908 b 304 799 233 831 265 799 b 375 869 343 799 375 831 b 304 940 375 908 343 940 z m 539 940 b 468 869 500 940 468 908 b 539 799 468 831 500 799 b 610 869 578 799 610 831 b 539 940 610 908 578 940 z "},"ý":{"ha":740,"x_min":0,"x_max":0,"o":""},"þ":{"ha":876,"x_min":0,"x_max":0,"o":"m 474 722 b 236 617 376 722 300 683 l 236 957 b 172 1021 236 993 208 1021 b 110 957 138 1021 110 993 l 110 -262 b 172 -326 110 -299 138 -326 b 236 -262 208 -326 236 -299 l 236 92 b 474 -14 300 25 376 -14 b 810 354 642 -14 810 118 b 474 722 810 590 642 722 z m 456 104 b 236 208 365 104 290 149 l 236 500 b 456 604 290 560 365 604 b 683 354 588 604 683 518 b 456 104 683 190 588 104 z "},"ÿ":{"ha":740,"x_min":0,"x_max":0,"o":"m 707 651 b 644 715 707 686 679 715 b 586 674 617 715 597 699 l 368 146 l 154 676 b 96 715 144 699 122 715 b 33 651 61 715 33 686 b 39 625 33 642 36 632 l 300 -11 l 210 -243 b 206 -265 207 -250 206 -258 b 265 -326 206 -299 232 -326 b 324 -283 294 -326 313 -308 l 703 628 b 707 651 706 635 707 643 z m 251 940 b 181 869 213 940 181 908 b 251 799 181 831 213 799 b 322 869 290 799 322 831 b 251 940 322 908 290 940 z m 486 940 b 415 869 447 940 415 908 b 486 799 415 831 447 799 b 557 869 525 799 557 831 b 486 940 557 908 525 940 z "},"ſ":{"ha":399,"x_min":0,"x_max":0,"o":"m 403 907 b 472 899 429 907 450 899 b 524 951 501 899 524 925 b 492 1000 524 974 508 992 b 371 1028 458 1017 417 1028 b 163 789 272 1028 163 964 l 163 708 l 81 708 b 26 654 50 708 26 685 b 81 600 26 624 50 600 l 163 600 l 163 56 b 225 -7 163 21 190 -7 b 289 56 261 -7 289 21 l 289 785 b 403 907 289 883 333 907 z "},"ƒ":{"ha":560,"x_min":0,"x_max":0,"o":"m 585 1018 b 476 1036 556 1032 518 1036 b 233 803 378 1036 258 978 l 204 593 l 83 593 b 40 550 60 593 40 574 b 83 507 40 526 58 507 l 192 507 l 124 21 b -7 -101 110 -78 63 -101 l -17 -101 b -74 -160 -49 -101 -74 -128 b -17 -217 -74 -192 -49 -217 l 8 -217 b 250 17 107 -217 225 -158 l 319 507 l 493 507 b 536 550 517 507 536 525 b 493 593 536 572 518 593 l 331 593 l 360 799 b 490 921 374 897 421 921 b 561 913 524 921 544 913 b 617 968 592 913 617 936 b 585 1018 617 990 603 1010 z "},"Ǽ":{"ha":1444,"x_min":0,"x_max":0,"o":"m 1313 118 l 819 118 l 819 426 l 1263 426 b 1322 485 1296 426 1322 451 b 1263 544 1322 518 1296 544 l 819 544 l 819 851 l 1313 851 b 1372 910 1346 851 1372 876 b 1313 969 1372 943 1346 969 l 635 969 b 571 935 608 969 585 956 l 17 94 b 3 56 8 82 3 71 b 67 -7 3 21 31 -7 b 124 29 92 -7 111 10 l 265 249 l 693 249 l 693 63 b 756 0 693 28 721 0 l 1313 0 b 1372 58 1346 0 1372 25 b 1313 118 1372 92 1346 118 z m 693 364 l 340 364 l 658 851 l 693 851 z m 801 1242 b 756 1215 778 1242 764 1231 l 685 1090 b 675 1064 682 1086 675 1075 b 713 1026 675 1042 690 1026 b 743 1042 726 1026 735 1032 l 839 1156 b 853 1190 849 1167 853 1178 b 801 1242 853 1221 832 1242 z "},"ǽ":{"ha":1256,"x_min":0,"x_max":0,"o":""},"Ǿ":{"ha":1126,"x_min":0,"x_max":0,"o":"m 564 983 b 76 485 267 983 82 775 b 247 92 79 319 140 181 l 193 15 b 185 -8 188 7 185 0 b 219 -42 185 -26 199 -42 b 249 -28 231 -42 242 -37 l 304 51 b 564 -14 376 10 464 -14 b 1051 485 860 -14 1046 194 b 882 875 1047 649 988 786 l 936 953 b 944 976 942 961 944 968 b 910 1010 944 994 931 1010 b 881 996 899 1010 888 1006 l 825 915 b 564 983 753 958 664 983 z m 203 485 b 564 865 203 699 333 865 b 754 817 638 865 701 847 l 318 193 b 203 485 243 263 203 365 z m 564 104 b 374 151 490 104 426 121 l 811 775 b 925 485 885 706 925 601 b 564 104 925 271 793 104 z m 629 1242 b 583 1215 606 1242 592 1231 l 513 1090 b 503 1064 510 1086 503 1075 b 540 1026 503 1042 518 1026 b 571 1042 554 1026 563 1032 l 667 1156 b 681 1190 676 1167 681 1178 b 629 1242 681 1221 660 1242 z "},"ǿ":{"ha":844,"x_min":0,"x_max":0,"o":""},"Ș":{"ha":857,"x_min":0,"x_max":0,"o":"m 442 -65 l 429 -65 b 358 -136 390 -65 358 -97 l 358 -143 b 429 -212 358 -182 390 -212 l 433 -212 b 371 -328 433 -281 407 -307 b 351 -360 358 -336 351 -346 b 388 -397 351 -379 367 -397 b 408 -390 396 -397 406 -393 b 511 -208 457 -361 511 -308 l 511 -143 l 511 -136 b 442 -65 511 -97 479 -65 z m 207 708 b 454 867 207 813 314 867 b 678 829 539 867 614 851 b 700 824 685 826 693 824 b 756 882 735 824 756 854 b 717 938 756 915 736 931 b 440 983 642 965 549 983 b 81 699 206 983 81 853 b 671 265 81 357 671 471 b 428 106 671 144 565 106 b 154 163 308 106 217 135 b 128 168 144 167 136 168 b 71 110 93 168 71 140 b 110 53 71 85 89 61 b 440 -14 190 18 301 -14 b 796 257 656 -14 796 100 b 207 708 796 624 207 468 z "},"ș":{"ha":667,"x_min":0,"x_max":0,"o":"m 347 -65 l 335 -65 b 264 -136 296 -65 264 -97 l 264 -143 b 335 -212 264 -182 296 -212 l 339 -212 b 276 -328 339 -281 313 -307 b 257 -360 264 -336 257 -346 b 293 -397 257 -379 272 -397 b 314 -390 301 -397 311 -393 b 417 -208 363 -361 417 -308 l 417 -143 l 417 -136 b 347 -65 417 -97 385 -65 z m 193 510 b 353 607 193 565 250 607 b 511 582 414 607 467 596 b 529 579 517 581 522 579 b 585 635 561 579 585 606 b 544 688 585 656 571 679 b 343 722 488 708 419 722 b 72 503 163 722 72 628 b 489 201 72 250 489 321 b 335 103 489 139 442 103 b 146 144 253 103 196 122 b 121 150 136 149 129 150 b 67 94 89 150 67 122 b 90 49 67 75 76 58 b 343 -14 161 10 242 -14 b 611 192 521 -14 611 79 b 193 510 611 464 193 365 z "},"Ț":{"ha":846,"x_min":0,"x_max":0,"o":"m 429 -65 l 417 -65 b 346 -136 378 -65 346 -97 l 346 -143 b 417 -212 346 -182 378 -212 l 421 -212 b 358 -328 421 -281 394 -307 b 339 -360 346 -336 339 -346 b 375 -397 339 -379 354 -397 b 396 -390 383 -397 393 -393 b 499 -208 444 -361 499 -308 l 499 -143 l 499 -136 b 429 -65 499 -97 467 -65 z m 768 969 l 76 969 b 18 910 43 969 18 943 b 76 851 18 876 43 851 l 360 851 l 360 56 b 422 -7 360 21 388 -7 b 486 56 457 -7 486 21 l 486 851 l 768 851 b 828 910 801 851 828 876 b 768 969 828 943 801 969 z "},"ț":{"ha":532,"x_min":0,"x_max":0,"o":"m 272 -65 l 260 -65 b 189 -136 221 -65 189 -97 l 189 -143 b 260 -212 189 -182 221 -212 l 264 -212 b 201 -328 264 -281 238 -307 b 182 -360 189 -336 182 -346 b 218 -397 182 -379 197 -397 b 239 -390 226 -397 236 -393 b 342 -208 288 -361 342 -308 l 342 -143 l 342 -136 b 272 -65 342 -97 310 -65 z m 454 110 b 371 97 431 110 415 97 b 281 181 336 97 281 99 l 281 600 l 438 600 b 492 654 468 600 492 624 b 438 708 492 685 468 708 l 281 708 l 281 819 b 254 847 281 835 269 847 b 231 835 243 847 235 839 l 42 650 b 29 626 33 643 29 635 b 56 600 29 611 40 600 l 154 600 l 154 169 b 357 -14 154 -3 292 -14 b 472 11 401 -14 439 -4 b 504 60 492 21 504 36 b 454 110 504 89 479 110 z "},"ȷ":{"ha":357,"x_min":0,"x_max":0,"o":"m 178 714 b 115 650 143 714 115 686 l 115 -140 b 31 -222 115 -215 79 -222 b -11 -218 14 -222 1 -218 b -64 -271 -42 -218 -64 -243 b -28 -321 -64 -294 -50 -314 b 60 -333 -3 -329 26 -333 b 242 -143 193 -333 242 -250 l 242 650 b 178 714 242 686 214 714 z "},"ˆ":{"ha":568,"x_min":0,"x_max":0,"o":"m 469 828 b 458 854 469 838 465 847 l 364 951 b 308 979 350 967 335 979 l 256 979 b 200 951 229 979 214 967 l 106 854 b 94 828 99 847 94 838 b 136 786 93 807 113 786 b 161 796 144 786 156 790 l 282 899 l 403 796 b 428 786 408 790 419 786 b 469 828 451 786 471 807 z "},"ˇ":{"ha":543,"x_min":0,"x_max":0,"o":"m 469 938 b 428 979 471 958 451 979 b 403 969 419 979 408 975 l 282 867 l 161 969 b 136 979 156 975 144 979 b 94 938 113 979 93 958 b 106 911 94 928 99 918 l 200 814 b 256 786 214 799 229 786 l 308 786 b 364 814 335 786 350 799 l 458 911 b 469 938 465 918 469 928 z "},"˘":{"ha":535,"x_min":0,"x_max":0,"o":"m 383 949 b 267 881 364 907 321 881 b 150 949 213 881 169 907 b 111 975 142 967 128 975 b 68 932 85 975 68 956 b 72 913 68 925 69 918 b 267 800 104 843 178 800 b 461 913 356 800 429 843 b 465 932 464 918 465 925 b 422 975 465 956 449 975 b 383 949 406 975 392 967 z "},"˙":{"ha":317,"x_min":0,"x_max":0,"o":"m 158 940 b 88 869 119 940 88 908 b 158 799 88 831 119 799 b 229 869 197 799 229 831 b 158 940 229 908 197 940 z "},"˚":{"ha":375,"x_min":0,"x_max":0,"o":"m 190 1026 b 60 896 118 1026 60 968 b 190 765 60 824 118 765 b 321 896 263 765 321 824 b 190 1026 321 968 263 1026 z m 190 828 b 122 896 153 828 122 858 b 190 964 122 933 153 964 b 258 896 228 964 258 933 b 190 828 258 858 228 828 z "},"˛":{"ha":488,"x_min":0,"x_max":0,"o":"m 329 -193 b 317 -196 325 -193 321 -194 b 268 -204 303 -200 288 -204 b 197 -139 218 -204 197 -179 b 353 0 196 -69 288 -24 l 244 0 b 96 -165 169 -31 96 -76 b 225 -282 96 -239 158 -282 b 344 -249 276 -282 315 -268 b 360 -224 354 -242 360 -233 b 329 -193 360 -206 347 -193 z "},"˜":{"ha":600,"x_min":0,"x_max":0,"o":"m 525 928 b 493 958 524 944 513 958 b 458 929 472 958 464 944 b 407 892 450 906 436 892 b 193 957 332 892 274 957 b 76 825 121 957 76 881 b 108 793 76 807 92 793 b 140 818 126 793 136 806 b 194 863 151 844 167 863 b 408 796 267 863 326 796 b 525 928 478 796 525 868 z "},"˝":{"ha":554,"x_min":0,"x_max":0,"o":"m 193 1003 b 147 976 169 1003 156 992 l 76 851 b 67 825 74 847 67 836 b 104 788 67 803 82 788 b 135 803 118 788 126 793 l 231 917 b 244 951 240 928 244 939 b 193 1003 244 982 224 1003 z m 407 1003 b 361 976 383 1003 369 992 l 290 851 b 281 825 288 847 281 836 b 318 788 281 803 296 788 b 349 803 332 788 340 793 l 444 917 b 458 951 454 928 458 939 b 407 1003 458 982 438 1003 z "},"Ω":{"ha":1097,"x_min":0,"x_max":0,"o":"m 549 857 b 888 497 761 857 888 686 b 678 119 888 269 760 167 b 646 64 660 108 646 86 b 711 0 646 29 676 0 l 968 0 b 1022 54 999 0 1022 24 b 968 108 1022 85 999 108 l 828 108 b 1001 513 914 179 1001 301 b 549 983 1001 738 832 983 b 96 513 265 983 96 738 b 269 108 96 301 183 179 l 129 108 b 75 54 99 108 75 85 b 129 0 75 24 99 0 l 386 0 b 451 64 421 0 451 29 b 419 119 451 86 438 108 b 210 497 338 167 210 269 b 549 857 210 686 336 857 z "},"π":{"ha":881,"x_min":0,"x_max":0,"o":"m 800 708 l 203 708 b 51 676 133 708 85 693 b 22 631 35 668 22 650 b 74 581 22 604 47 581 b 97 586 82 581 93 585 b 203 599 129 596 158 599 l 233 599 b 157 82 228 417 221 251 b 150 53 153 72 150 61 b 211 -7 150 18 179 -7 b 269 38 239 -7 263 11 b 353 599 324 231 347 408 l 597 599 l 597 53 b 657 -7 597 19 624 -7 b 717 53 690 -7 717 19 l 717 599 l 800 599 b 856 653 831 599 856 622 b 800 708 856 683 831 708 z "},"–":{"ha":950,"x_min":0,"x_max":0,"o":"m 797 446 l 151 446 b 96 389 119 446 96 421 b 151 333 96 357 119 333 l 797 333 b 854 389 829 333 854 357 b 797 446 854 421 829 446 z "},"—":{"ha":1238,"x_min":0,"x_max":0,"o":"m 1085 446 l 151 446 b 96 389 119 446 96 421 b 151 333 96 357 119 333 l 1085 333 b 1142 389 1117 333 1142 357 b 1085 446 1142 421 1117 446 z "},"‘":{"ha":354,"x_min":0,"x_max":0,"o":"m 183 663 b 261 740 226 663 261 697 l 261 749 b 183 826 261 792 226 826 l 178 826 b 249 956 178 903 208 932 b 269 990 263 964 269 975 b 229 1032 269 1013 253 1032 b 206 1025 219 1032 210 1028 b 92 822 151 992 92 933 l 92 749 l 92 740 b 169 663 92 697 126 663 z "},"’":{"ha":331,"x_min":0,"x_max":0,"o":"m 188 1032 l 174 1032 b 96 954 131 1032 96 997 l 96 946 b 174 868 96 903 131 868 l 179 868 b 108 739 179 792 149 763 b 88 704 94 731 88 719 b 128 663 88 682 104 663 b 151 669 138 663 147 667 b 265 872 206 703 265 761 l 265 946 l 265 954 b 188 1032 265 997 231 1032 z "},"‚":{"ha":361,"x_min":0,"x_max":0,"o":"m 188 160 l 174 160 b 96 82 131 160 96 125 l 96 74 b 174 -4 96 31 131 -4 l 179 -4 b 108 -133 179 -81 149 -110 b 88 -168 94 -142 88 -153 b 128 -210 88 -190 104 -210 b 151 -203 138 -210 147 -206 b 265 0 206 -169 265 -111 l 265 74 l 265 82 b 188 160 265 125 231 160 z "},"“":{"ha":607,"x_min":0,"x_max":0,"o":"m 435 663 b 513 740 478 663 513 697 l 513 749 b 435 826 513 792 478 826 l 429 826 b 500 956 429 903 460 932 b 521 990 514 964 521 975 b 481 1032 521 1013 504 1032 b 457 1025 471 1032 461 1028 b 343 822 403 992 343 933 l 343 749 l 343 740 b 421 663 343 697 378 663 z m 183 663 b 261 740 226 663 261 697 l 261 749 b 183 826 261 792 226 826 l 178 826 b 249 956 178 903 208 932 b 269 990 263 964 269 975 b 229 1032 269 1013 253 1032 b 206 1025 219 1032 210 1028 b 92 822 151 992 92 933 l 92 749 l 92 740 b 169 663 92 697 126 663 z "},"”":{"ha":583,"x_min":0,"x_max":0,"o":"m 188 1032 l 174 1032 b 96 954 131 1032 96 997 l 96 946 b 174 868 96 903 131 868 l 179 868 b 108 739 179 792 149 763 b 88 704 94 731 88 719 b 128 663 88 682 104 663 b 151 669 138 663 147 667 b 265 872 206 703 265 761 l 265 946 l 265 954 b 188 1032 265 997 231 1032 z m 439 1032 l 425 1032 b 347 954 382 1032 347 997 l 347 946 b 425 868 347 903 382 868 l 431 868 b 360 739 431 792 400 763 b 339 704 346 731 339 719 b 379 663 339 682 356 663 b 403 669 389 663 399 667 b 517 872 457 703 517 761 l 517 946 l 517 954 b 439 1032 517 997 482 1032 z "},"„":{"ha":614,"x_min":0,"x_max":0,"o":"m 188 160 l 174 160 b 96 82 131 160 96 125 l 96 74 b 174 -4 96 31 131 -4 l 179 -4 b 108 -133 179 -81 149 -110 b 88 -168 94 -142 88 -153 b 128 -210 88 -190 104 -210 b 151 -203 138 -210 147 -206 b 265 0 206 -169 265 -111 l 265 74 l 265 82 b 188 160 265 125 231 160 z m 439 160 l 425 160 b 347 82 382 160 347 125 l 347 74 b 425 -4 347 31 382 -4 l 431 -4 b 360 -133 431 -81 400 -110 b 339 -168 346 -142 339 -153 b 379 -210 339 -190 356 -210 b 403 -203 389 -210 399 -206 b 517 0 457 -169 517 -111 l 517 74 l 517 82 b 439 160 517 125 482 160 z "},"†":{"ha":701,"x_min":0,"x_max":0,"o":"m 579 674 l 525 674 b 407 661 510 674 485 674 b 383 685 392 658 381 669 b 397 803 396 763 397 788 l 397 860 b 351 935 397 885 388 935 b 306 860 315 935 306 885 l 306 803 b 319 685 306 788 307 763 b 296 661 322 669 311 658 b 178 674 218 674 193 674 l 124 674 b 49 631 85 674 49 661 b 124 588 49 600 85 588 l 178 588 b 296 601 193 588 218 589 b 319 578 311 604 322 593 b 307 460 319 578 307 500 l 322 -54 b 351 -129 324 -75 321 -129 b 381 -54 382 -129 379 -75 l 396 460 b 383 578 396 500 383 578 b 407 601 381 593 392 604 b 525 588 485 589 510 588 l 579 588 b 654 631 618 588 654 600 b 579 674 654 661 618 674 z "},"‡":{"ha":738,"x_min":0,"x_max":0,"o":"m 597 217 l 543 217 b 425 203 528 217 503 215 b 401 226 410 200 399 211 b 414 403 401 226 414 363 b 401 579 414 443 401 579 b 425 603 399 594 410 606 b 543 589 503 590 528 589 l 597 589 b 672 632 636 589 672 601 b 597 675 672 663 636 675 l 543 675 b 425 663 528 675 503 675 b 401 686 410 660 399 671 b 415 804 414 764 415 789 l 415 861 b 369 936 415 886 406 936 b 324 861 333 936 324 886 l 324 804 b 338 686 324 789 325 764 b 314 663 340 671 329 660 b 196 675 236 675 211 675 l 142 675 b 67 632 103 675 67 663 b 142 589 67 601 103 589 l 196 589 b 314 603 211 589 236 590 b 338 579 329 606 340 594 b 325 403 338 579 325 443 b 338 226 325 363 338 226 b 314 203 340 211 329 200 b 196 217 236 215 211 217 l 142 217 b 67 174 103 217 67 204 b 142 131 67 143 103 131 l 196 131 b 314 143 211 131 236 131 b 338 119 329 146 340 135 b 324 1 325 42 324 17 l 324 -56 b 369 -131 324 -81 333 -131 b 415 -56 406 -131 415 -81 l 415 1 b 401 119 415 17 414 42 b 425 143 399 135 410 146 b 543 131 503 131 528 131 l 597 131 b 672 174 636 131 672 143 b 597 217 672 204 636 217 z "},"•":{"ha":524,"x_min":0,"x_max":0,"o":"m 263 731 b 78 546 160 731 78 649 b 263 361 78 443 160 361 b 446 546 364 361 446 443 b 263 731 446 649 364 731 z "},"…":{"ha":1344,"x_min":0,"x_max":0,"o":"m 188 160 l 174 160 b 96 82 131 160 96 125 l 96 74 b 174 -4 96 31 131 -4 l 188 -4 b 265 74 231 -4 265 31 l 265 82 b 188 160 265 125 231 160 z m 681 160 l 667 160 b 589 82 624 160 589 125 l 589 74 b 667 -4 589 31 624 -4 l 681 -4 b 758 74 724 -4 758 31 l 758 82 b 681 160 758 125 724 160 z m 1169 160 l 1156 160 b 1078 82 1113 160 1078 125 l 1078 74 b 1156 -4 1078 31 1113 -4 l 1169 -4 b 1247 74 1213 -4 1247 31 l 1247 82 b 1169 160 1247 125 1213 160 z "},"‹":{"ha":524,"x_min":0,"x_max":0,"o":"m 421 82 b 408 118 421 96 417 108 l 186 354 l 408 590 b 421 626 417 600 421 613 b 367 681 421 658 397 681 b 328 665 351 681 336 675 l 100 414 b 75 354 86 399 75 376 b 100 294 75 332 86 310 l 328 43 b 367 28 336 33 351 28 b 421 82 397 28 421 50 z "},"›":{"ha":524,"x_min":0,"x_max":0,"o":"m 103 82 b 157 28 103 50 126 28 b 196 43 172 28 188 33 l 424 294 b 449 354 438 310 449 332 b 424 414 449 376 438 399 l 196 665 b 157 681 188 675 172 681 b 103 626 126 681 103 658 b 115 590 103 613 107 600 l 338 354 l 115 118 b 103 82 107 108 103 96 z "},"⁄":{"ha":278,"x_min":0,"x_max":0,"o":"m -147 -33 b -108 -14 -132 -33 -117 -28 l 467 933 b 474 958 471 942 474 950 b 426 1006 474 986 451 1006 b 388 986 411 1006 396 1000 l -187 39 b -194 14 -192 31 -194 22 b -147 -33 -194 -14 -172 -33 z "},"€":{"ha":947,"x_min":0,"x_max":0,"o":"m 828 136 b 801 129 819 136 808 132 b 650 106 760 114 713 106 b 339 318 514 106 393 188 l 668 318 b 719 368 699 318 719 339 b 668 419 719 396 696 419 l 310 419 b 306 485 307 440 306 463 b 310 550 306 507 307 529 l 738 550 b 788 600 765 550 788 574 b 738 650 788 628 765 650 l 339 650 b 650 864 393 782 514 864 b 801 840 713 864 760 856 b 828 833 808 838 819 833 b 885 889 858 833 885 858 b 853 939 885 911 872 929 b 650 983 793 968 725 983 b 207 650 429 983 268 843 l 108 650 b 58 600 81 650 58 628 b 108 550 58 572 81 550 l 185 550 b 179 485 182 528 179 507 b 185 419 179 463 182 440 l 108 419 b 58 368 81 419 58 396 b 108 318 58 340 81 318 l 207 318 b 650 -14 268 126 429 -14 b 853 31 725 -14 793 1 b 885 81 872 40 885 58 b 828 136 885 111 858 136 z "},"™":{"ha":1324,"x_min":0,"x_max":0,"o":"m 739 936 b 685 972 731 957 708 972 l 661 972 b 603 914 628 972 603 946 l 603 485 b 647 440 603 460 622 440 b 692 485 672 440 692 460 l 692 849 l 846 475 b 900 440 854 454 875 440 b 954 475 925 440 946 454 l 1108 849 l 1108 485 b 1153 440 1108 460 1128 440 b 1197 485 1178 440 1197 460 l 1197 914 b 1139 972 1197 946 1172 972 l 1115 972 b 1061 936 1092 972 1069 957 l 900 538 z m 486 969 l 119 969 b 79 929 97 969 79 951 b 119 889 79 907 97 889 l 258 889 l 258 483 b 301 440 258 458 276 440 b 346 483 326 440 346 458 l 346 889 l 486 889 b 526 929 508 889 526 907 b 486 969 526 951 508 969 z "},"Ω":{"ha":1097,"x_min":0,"x_max":0,"o":"m 549 857 b 888 497 761 857 888 686 b 678 119 888 269 760 167 b 646 64 660 108 646 86 b 711 0 646 29 676 0 l 968 0 b 1022 54 999 0 1022 24 b 968 108 1022 85 999 108 l 828 108 b 1001 513 914 179 1001 301 b 549 983 1001 738 832 983 b 96 513 265 983 96 738 b 269 108 96 301 183 179 l 129 108 b 75 54 99 108 75 85 b 129 0 75 24 99 0 l 386 0 b 451 64 421 0 451 29 b 419 119 451 86 438 108 b 210 497 338 167 210 269 b 549 857 210 686 336 857 z "},"∂":{"ha":951,"x_min":0,"x_max":0,"o":"m 492 1047 b 292 1014 414 1047 347 1035 b 256 963 271 1006 256 986 b 311 907 256 931 281 907 b 331 910 318 907 326 908 b 474 928 379 924 425 928 b 742 592 671 928 742 757 b 736 504 742 557 740 536 b 444 631 672 569 564 631 b 58 289 213 631 58 482 b 393 -14 58 154 149 -14 b 864 601 707 -14 864 243 b 492 1047 864 831 742 1047 z m 403 97 b 185 301 256 97 185 197 b 454 526 185 443 297 526 b 718 392 568 526 663 465 b 403 97 690 268 611 97 z "},"∆":{"ha":1001,"x_min":0,"x_max":0,"o":"m 599 897 b 501 969 583 936 557 969 b 404 897 447 969 419 936 l 106 147 b 94 97 100 133 94 114 b 197 0 94 40 140 0 l 806 0 b 908 97 863 0 908 40 b 897 147 908 114 903 133 z m 203 99 l 501 847 l 800 99 z "},"∏":{"ha":1029,"x_min":0,"x_max":0,"o":"m 919 969 l 110 969 b 50 910 76 969 50 943 b 110 850 50 876 76 850 l 213 850 l 213 -100 b 272 -160 213 -133 239 -160 b 332 -100 306 -160 332 -133 l 332 850 l 697 850 l 697 -100 b 757 -160 697 -133 724 -160 b 817 -100 790 -160 817 -133 l 817 850 l 919 850 b 979 910 953 850 979 876 b 919 969 979 943 953 969 z "},"∑":{"ha":876,"x_min":0,"x_max":0,"o":"m 758 -143 b 819 -82 792 -143 819 -115 b 758 -22 819 -49 792 -22 l 213 -22 l 561 346 b 588 414 578 364 588 388 b 561 482 588 440 578 464 l 213 850 l 758 850 b 819 910 792 850 819 876 b 758 971 819 943 792 971 l 144 971 b 57 882 96 971 57 931 b 83 818 57 857 68 836 l 461 414 l 83 10 b 57 -54 68 -8 57 -29 b 144 -143 57 -103 96 -143 z "},"−":{"ha":989,"x_min":0,"x_max":0,"o":"m 831 515 l 157 515 b 101 458 125 515 101 490 b 157 403 101 426 125 403 l 831 403 b 888 458 863 403 888 426 b 831 515 888 490 863 515 z "},"√":{"ha":861,"x_min":0,"x_max":0,"o":"m 833 969 l 690 969 b 625 914 656 969 635 944 l 369 147 l 231 540 b 181 581 219 571 206 581 b 157 575 172 581 164 578 l 43 529 b 10 490 22 521 10 510 b 50 449 10 468 28 449 b 68 453 56 449 64 451 l 146 483 l 304 51 b 369 0 315 22 338 0 l 375 0 b 439 47 404 0 431 19 l 710 896 l 833 896 b 871 932 854 896 871 911 b 833 969 871 953 854 969 z "},"∞":{"ha":1338,"x_min":0,"x_max":0,"o":"m 979 635 b 671 440 829 635 740 532 l 667 440 b 358 635 599 532 507 635 b 90 354 149 635 90 468 b 358 74 90 240 149 74 b 667 268 507 74 599 175 l 671 268 b 979 74 740 175 829 74 b 1247 354 1189 74 1247 240 b 979 635 1247 468 1189 635 z m 965 181 b 718 354 836 181 761 294 b 965 528 761 415 836 528 b 1136 354 1082 528 1136 440 b 965 181 1136 268 1082 181 z m 372 181 b 201 354 256 181 201 268 b 372 528 201 440 256 528 b 619 354 501 528 578 415 b 372 181 578 294 501 181 z "},"∫":{"ha":515,"x_min":0,"x_max":0,"o":"m 467 1099 b 417 1103 451 1101 435 1103 b 232 924 290 1103 238 1025 l 165 -22 b 81 -100 161 -93 126 -100 b 51 -99 65 -100 58 -99 b 1 -149 21 -99 1 -122 b 42 -199 1 -172 18 -194 b 100 -204 60 -201 79 -204 b 285 -25 226 -204 278 -125 l 350 921 b 436 1000 356 992 390 1000 b 464 999 451 1000 457 999 b 514 1049 490 999 514 1022 b 467 1099 514 1074 497 1093 z "},"≈":{"ha":938,"x_min":0,"x_max":0,"o":"m 826 579 b 788 618 826 600 808 618 b 750 590 769 618 756 606 b 651 522 735 549 706 522 b 290 626 544 522 431 626 b 119 494 213 626 157 582 b 115 479 117 489 115 483 b 154 440 115 458 133 440 b 189 465 169 440 183 450 b 290 536 204 507 235 536 b 651 432 397 536 511 432 b 824 564 729 432 793 474 b 826 579 825 568 826 575 z m 826 322 b 788 361 826 343 808 361 b 750 333 769 361 756 349 b 651 265 735 292 706 265 b 290 369 544 265 431 369 b 119 238 213 369 157 325 b 115 222 117 232 115 226 b 154 183 115 201 133 183 b 189 208 169 183 183 193 b 290 279 204 250 235 279 b 651 175 397 279 511 175 b 824 307 729 175 793 217 b 826 322 825 311 826 318 z "},"≠":{"ha":956,"x_min":0,"x_max":0,"o":"m 136 561 l 489 561 l 361 358 l 136 358 b 82 304 106 358 82 335 b 136 250 82 274 106 250 l 292 250 l 199 103 b 192 74 193 93 192 85 b 233 38 192 54 211 38 b 268 56 247 38 261 44 l 390 250 l 814 250 b 868 304 844 250 868 274 b 814 358 868 335 844 358 l 460 358 l 588 561 l 814 561 b 868 615 844 561 868 585 b 814 669 868 646 844 669 l 657 669 l 747 811 b 754 840 753 821 754 829 b 713 876 754 860 735 876 b 678 858 699 876 685 869 l 558 669 l 136 669 b 82 615 106 669 82 646 b 136 561 82 585 106 561 z "},"≤":{"ha":875,"x_min":0,"x_max":0,"o":"m 713 157 b 768 213 743 157 768 181 b 731 265 768 235 753 256 l 231 488 l 731 710 b 768 763 753 719 768 740 b 713 818 768 794 743 818 b 690 814 704 818 697 817 l 136 565 b 86 493 106 551 86 525 l 86 482 b 136 410 86 450 106 424 l 690 161 b 713 157 697 158 704 157 z m 718 101 l 131 101 b 81 50 103 101 81 78 b 131 0 81 22 103 0 l 718 0 b 769 50 746 0 769 22 b 718 101 769 78 746 101 z "},"≥":{"ha":875,"x_min":0,"x_max":0,"o":"m 163 157 b 185 161 171 157 178 158 l 739 410 b 789 482 769 424 789 450 l 789 493 b 739 565 789 525 769 551 l 185 814 b 163 818 178 817 171 818 b 107 763 132 818 107 794 b 144 710 107 740 122 719 l 644 488 l 144 265 b 107 213 122 256 107 235 b 163 157 107 181 132 157 z m 157 101 b 106 50 129 101 106 78 b 157 0 106 22 129 0 l 744 0 b 794 50 772 0 794 22 b 744 101 794 78 772 101 z "},"◊":{"ha":869,"x_min":0,"x_max":0,"o":"m 440 -146 b 511 -107 471 -146 497 -131 l 803 372 b 814 415 810 385 814 399 b 803 458 814 432 810 446 l 511 938 b 440 976 497 961 471 976 l 429 976 b 358 938 399 976 372 961 l 67 458 b 56 415 60 446 56 432 b 67 372 56 399 60 385 l 358 -107 b 429 -146 372 -131 399 -146 z m 435 -40 l 164 415 l 435 871 l 706 415 z "},"ﬀ":{"ha":1075,"x_min":0,"x_max":0,"o":"m 950 907 b 1019 899 976 907 997 899 b 1071 951 1049 899 1071 925 b 1039 1000 1071 974 1056 992 b 918 1028 1006 1017 964 1028 b 710 789 819 1028 710 964 l 710 708 l 289 708 l 289 785 b 403 907 289 883 333 907 b 472 899 429 907 450 899 b 524 951 501 899 524 925 b 492 1000 524 974 508 992 b 371 1028 458 1017 417 1028 b 163 789 272 1028 163 964 l 163 708 l 81 708 b 26 654 50 708 26 685 b 81 600 26 624 50 600 l 163 600 l 163 56 b 225 -7 163 21 190 -7 b 289 56 261 -7 289 21 l 289 600 l 710 600 l 710 56 b 772 -7 710 21 738 -7 b 836 56 808 -7 836 21 l 836 600 l 1010 600 b 1064 654 1040 600 1064 624 b 1010 708 1064 685 1040 708 l 836 708 l 836 785 b 950 907 836 883 881 907 z "},"ﬁ":{"ha":890,"x_min":0,"x_max":0,"o":"m 289 708 l 289 785 b 403 907 289 883 333 907 b 472 899 429 907 450 899 b 524 951 501 899 524 925 b 492 1000 524 974 508 992 b 371 1028 458 1017 417 1028 b 163 789 272 1028 163 964 l 163 708 l 81 708 b 26 654 50 708 26 685 b 81 600 26 624 50 600 l 163 600 l 163 56 b 225 -7 163 21 190 -7 b 289 56 261 -7 289 21 l 289 600 l 649 600 l 649 56 b 711 -7 649 21 676 -7 b 775 56 747 -7 775 21 l 775 644 b 715 708 775 679 750 706 z m 788 929 b 717 1000 788 968 756 1000 l 708 1000 b 638 929 669 1000 638 968 l 638 924 b 708 853 638 885 669 853 l 717 853 b 788 924 756 853 788 885 z "},"ﬂ":{"ha":894,"x_min":0,"x_max":0,"o":"m 403 907 b 472 899 429 907 450 899 b 524 951 501 899 524 925 b 492 1000 524 974 508 992 b 371 1028 458 1017 417 1028 b 163 789 272 1028 163 964 l 163 708 l 81 708 b 26 654 50 708 26 685 b 81 600 26 624 50 600 l 163 600 l 163 56 b 225 -7 163 21 190 -7 b 289 56 261 -7 289 21 l 289 600 l 463 600 b 517 654 493 600 517 624 b 463 708 517 685 493 708 l 289 708 l 289 785 b 403 907 289 883 333 907 z m 710 1021 b 647 957 675 1021 647 993 l 647 56 b 710 -7 647 21 675 -7 b 774 56 746 -7 774 21 l 774 957 b 710 1021 774 993 746 1021 z "},"ﬃ":{"ha":1438,"x_min":0,"x_max":0,"o":"m 1258 708 l 836 708 l 836 785 b 950 907 836 883 881 907 b 1019 899 976 907 997 899 b 1071 951 1049 899 1071 925 b 1039 1000 1071 974 1056 992 b 918 1028 1006 1017 964 1028 b 710 789 819 1028 710 964 l 710 708 l 289 708 l 289 785 b 403 907 289 883 333 907 b 472 899 429 907 450 899 b 524 951 501 899 524 925 b 492 1000 524 974 508 992 b 371 1028 458 1017 417 1028 b 163 789 272 1028 163 964 l 163 708 l 81 708 b 26 654 50 708 26 685 b 81 600 26 624 50 600 l 163 600 l 163 56 b 225 -7 163 21 190 -7 b 289 56 261 -7 289 21 l 289 600 l 710 600 l 710 56 b 772 -7 710 21 738 -7 b 836 56 808 -7 836 21 l 836 600 l 1196 600 l 1196 56 b 1258 -7 1196 21 1224 -7 b 1322 56 1294 -7 1322 21 l 1322 644 b 1258 708 1322 681 1294 708 z m 1335 929 b 1264 1000 1335 968 1303 1000 l 1256 1000 b 1185 929 1217 1000 1185 968 l 1185 924 b 1256 853 1185 885 1217 853 l 1264 853 b 1335 924 1303 853 1335 885 z "},"ﬄ":{"ha":1442,"x_min":0,"x_max":0,"o":"m 1257 1021 b 1194 957 1222 1021 1194 993 l 1194 56 b 1257 -7 1194 21 1222 -7 b 1321 56 1293 -7 1321 21 l 1321 957 b 1257 1021 1321 993 1293 1021 z m 950 907 b 1019 899 976 907 997 899 b 1071 951 1049 899 1071 925 b 1039 1000 1071 974 1056 992 b 918 1028 1006 1017 964 1028 b 710 789 819 1028 710 964 l 710 708 l 289 708 l 289 785 b 403 907 289 883 333 907 b 472 899 429 907 450 899 b 524 951 501 899 524 925 b 492 1000 524 974 508 992 b 371 1028 458 1017 417 1028 b 163 789 272 1028 163 964 l 163 708 l 81 708 b 26 654 50 708 26 685 b 81 600 26 624 50 600 l 163 600 l 163 56 b 225 -7 163 21 190 -7 b 289 56 261 -7 289 21 l 289 600 l 710 600 l 710 56 b 772 -7 710 21 738 -7 b 836 56 808 -7 836 21 l 836 600 l 1010 600 b 1064 654 1040 600 1064 624 b 1010 708 1064 685 1040 708 l 836 708 l 836 785 b 950 907 836 883 881 907 z "},"ﬆ":{"ha":1169,"x_min":0,"x_max":0,"o":"m 1092 110 b 1008 97 1068 110 1053 97 b 918 181 974 97 918 99 l 918 600 l 1075 600 b 1129 654 1106 600 1129 624 b 1075 708 1129 685 1106 708 l 918 708 l 918 811 b 665 1075 918 950 829 1075 b 413 835 503 1075 413 972 b 449 713 413 785 426 744 b 343 722 415 718 381 722 b 72 503 163 722 72 628 b 489 201 72 250 489 321 b 335 103 489 139 442 103 b 146 144 253 103 196 122 b 121 150 136 149 129 150 b 67 94 89 150 67 122 b 90 49 67 75 76 58 b 343 -14 161 10 242 -14 b 611 192 521 -14 611 79 b 193 510 611 464 193 365 b 353 607 193 565 250 607 b 511 582 414 607 467 596 b 529 579 517 581 522 579 b 585 635 561 579 585 606 b 557 682 585 651 575 671 b 479 825 513 710 479 754 b 635 982 479 926 550 982 b 792 825 756 982 792 899 l 792 708 l 707 708 b 653 654 676 708 653 685 b 707 600 653 624 676 600 l 792 600 l 792 169 b 994 -14 792 -3 929 -14 b 1110 11 1039 -14 1076 -4 b 1142 60 1129 21 1142 36 b 1092 110 1142 89 1117 110 z "}}}
